<?xml version="1.0" encoding="utf-8"?>
<!-- Generator: Adobe Illustrator 27.0.0, SVG Export Plug-In . SVG Version: 6.00 Build 0)  -->
<svg version="1.1" id="Layer_1" xmlns="http://www.w3.org/2000/svg" xmlns:xlink="http://www.w3.org/1999/xlink" x="0px" y="0px"
	 viewBox="0 0 2521 2911" style="enable-background:new 0 0 2521 2911;" xml:space="preserve">
<style type="text/css">
	.st0{fill:#E8E3D3;}
	.st1{fill:#E6B35A;}
	.st2{fill:#4B2E83;}
	.st3{font-family:'ArialMT';}
	.st4{font-size:531px;}
	.st5{fill:none;stroke:#4B2E83;stroke-width:7;stroke-miterlimit:10;}
	.st6{fill:#4B2E83;stroke:#4B2E83;stroke-width:7;stroke-miterlimit:10;}
	.st7{fill:none;stroke:#4B2E83;stroke-width:50;stroke-miterlimit:10;}
	.st8{clip-path:url(#SVGID_00000046328851486563766080000017638996955079779498_);}
	.st9{clip-path:url(#SVGID_00000011749496606654056690000014299991939486844303_);}
	.st10{fill:none;stroke:#4B2E83;stroke-width:6;stroke-miterlimit:10;}
	.st11{fill:none;stroke:#4B2E83;stroke-width:10;stroke-miterlimit:10;}
	.st12{fill:none;stroke:#4B2E83;stroke-width:13;stroke-miterlimit:10;}
	.st13{fill:none;stroke:#4B2E83;stroke-width:11;stroke-miterlimit:10;}
	.st14{fill:none;stroke:#4B2E83;stroke-width:12;stroke-miterlimit:10;}
	.st15{fill:none;stroke:#4B2E83;stroke-width:14;stroke-miterlimit:10;}
	.st16{fill:none;stroke:#4B2E83;stroke-width:15;stroke-miterlimit:10;}
	.st17{fill:none;stroke:#4B2E83;stroke-width:16;stroke-miterlimit:10;}
	.st18{fill:none;stroke:#4B2E83;stroke-width:17;stroke-miterlimit:10;}
	.st19{fill:none;stroke:#4B2E83;stroke-width:18;stroke-miterlimit:10;}
	.st20{fill:none;stroke:#4B2E83;stroke-width:19;stroke-miterlimit:10;}
	.st21{fill:none;stroke:#4B2E83;stroke-width:20;stroke-miterlimit:10;}
	.st22{fill:none;stroke:#4B2E83;stroke-width:23;stroke-miterlimit:10;}
	.st23{fill:none;stroke:#4B2E83;stroke-width:25;stroke-miterlimit:10;}
	.st24{fill:none;stroke:#4B2E83;stroke-width:28;stroke-miterlimit:10;}
	.st25{fill:none;stroke:#4B2E83;stroke-width:30;stroke-miterlimit:10;}
	.st26{fill:none;stroke:#4B2E83;stroke-width:33;stroke-miterlimit:10;}
	.st27{fill:none;stroke:#4B2E83;stroke-width:32;stroke-miterlimit:10;}
	.st28{fill:none;stroke:#4B2E83;stroke-width:31;stroke-miterlimit:10;}
	.st29{fill:none;stroke:#4B2E83;stroke-width:34;stroke-miterlimit:10;}
	.st30{fill:none;stroke:#4B2E83;stroke-width:35;stroke-miterlimit:10;}
	.st31{fill:none;stroke:#4B2E83;stroke-width:36;stroke-miterlimit:10;}
	.st32{fill:none;stroke:#4B2E83;stroke-width:37;stroke-miterlimit:10;}
	.st33{fill:none;stroke:#4B2E83;stroke-width:38;stroke-miterlimit:10;}
	.st34{fill:none;stroke:#4B2E83;stroke-width:39;stroke-miterlimit:10;}
	.st35{fill:none;stroke:#4B2E83;stroke-width:40;stroke-miterlimit:10;}
	.st36{fill:none;stroke:#4B2E83;stroke-width:41;stroke-miterlimit:10;}
	.st37{fill:none;stroke:#4B2E83;stroke-width:42;stroke-miterlimit:10;}
	.st38{fill:none;stroke:#4B2E83;stroke-width:43;stroke-miterlimit:10;}
	.st39{fill:none;stroke:#4B2E83;stroke-width:44;stroke-miterlimit:10;}
	.st40{fill:none;stroke:#4B2E83;stroke-width:46;stroke-miterlimit:10;}
	.st41{fill:none;stroke:#4B2E83;stroke-width:45;stroke-miterlimit:10;}
	.st42{fill:none;stroke:#4B2E83;stroke-width:47;stroke-miterlimit:10;}
	.st43{fill:none;stroke:#4B2E83;stroke-width:49;stroke-miterlimit:10;}
	.st44{fill:none;stroke:#4B2E83;stroke-width:48;stroke-miterlimit:10;}
	.st45{fill:none;stroke:#4B2E83;stroke-width:60;stroke-miterlimit:10;}
	.st46{fill:none;stroke:#4B2E83;stroke-width:80;stroke-miterlimit:10;}
	.st47{fill:none;stroke:#4B2E83;stroke-width:100;stroke-miterlimit:10;}
	.st48{fill:none;stroke:#4B2E83;stroke-width:120;stroke-miterlimit:10;}
	.st49{fill:none;stroke:#4B2E83;stroke-width:140;stroke-miterlimit:10;}
</style>
<g>
	<path class="st0" d="M2442.3,787.6l-178.1-102.9c-252.8-183.2-693.3-408.3-1004.5-579.9C906.3,307.6,535.1,523.1,252.1,686.4
		l-175,101.2v1365.6L1259.7,2836l1182.6-682.8L2442.3,787.6L2442.3,787.6z"/>
	<path class="st1" d="M625.4,2168.8c1-1,2.1-2.1,3.1-3.1h-0.7L625.4,2168.8z"/>
</g>
<text transform="matrix(1 0 0 1 514.9907 1168.5841)" class="st2 st3 st4">k mma</text>
<path class="st2" d="M2420.6,669.1l-953.1-550.3L1260.6-0.6l-206.9,119.5L100.6,669.1L0.1,727.2v1455.5l100.5,58l965,557.1
	l195,112.6l195-112.6l964.9-557.1l100.5-58V727.2L2420.6,669.1z M2340.2,2177.5l-12,6.9l-220.8,127.5l-20.8,12l-280,161.7l-12,6.9
	l-528.4,304.9l-5.7,3.4l-6.3-3.4l-529.7-306l-12-6.9l-278.2-160.7l-20.8-12l-226.2-130.6l-12-6.9l-74.9-43.3V791.5l74.9-43.2l12-6.9
	l57.3-33.1l20.6-12l447.3-258.2l12-6.9l529.6-305.7l6.3-3.6l0,0l5.7,3.4l528.3,305.1l12,6.9L2175,649.9l228.4,131.8l17.2,9.9V2131
	L2340.2,2177.5z"/>
<g>
	<g>
		<path class="st5" d="M832,1002.4h53.2c1.5-3.8,2.5-8,2.7-12.7h-58.5C829.5,994.5,830.5,998.7,832,1002.4z"/>
		<path class="st5" d="M832.4,971.2h52.2c-2.1-4.8-5-8.9-8.6-12.7h-35.1C837.5,962.2,834.5,966.4,832.4,971.2z"/>
		<path class="st5" d="M831.6,909.9h53.9c1.4-3.8,2.2-8,2.4-12.7h-58.6C829.4,901.9,830.2,906.1,831.6,909.9z"/>
		<path class="st5" d="M842.8,1018.1h31.5c3.8-3.8,7.1-7.9,9.5-12.7h-50.5C835.7,1010.2,839,1014.3,842.8,1018.1z"/>
		<path class="st5" d="M841.9,925.5h33.3c3.7-3.8,6.8-7.9,9.1-12.7h-51.4C835.1,917.6,838.2,921.7,841.9,925.5z"/>
		<path class="st5" d="M833,1061.6h51.1c-2.3-4.8-5.5-8.9-9.2-12.7h-32.7C838.5,1052.7,835.3,1056.8,833,1061.6z"/>
		<path class="st5" d="M829.3,1077.3h58.6c-0.2-4.7-1.1-8.9-2.5-12.7h-53.6C830.3,1068.3,829.4,1072.5,829.3,1077.3z"/>
		<path class="st5" d="M829.2,986.8h58.6c-0.1-4.7-0.8-8.9-2.1-12.7h-54.5C830,977.9,829.3,982.1,829.2,986.8z"/>
		<path class="st6" d="M829.2,987.4c0,0.8,0,1.6,0.1,2.4h58.5c0-0.8,0.1-1.6,0.1-2.4c0-0.2,0-0.4,0-0.6h-58.6
			C829.2,987,829.2,987.2,829.2,987.4z"/>
		<path class="st6" d="M825.6,989.7c0-0.8-0.1-1.6-0.1-2.4c0-0.2,0-0.4,0-0.6"/>
		<path class="st6" d="M891.6,986.8c0,0.2,0,0.4,0,0.6c0,0.8,0,1.6-0.1,2.4"/>
		<path class="st6" d="M831.3,974.1h54.5c-0.3-1-0.7-2-1.1-2.9h-52.2C832,972.1,831.7,973.1,831.3,974.1z"/>
		<path class="st6" d="M827.5,974.1c0.3-1,0.6-2,1-2.9"/>
		<path class="st6" d="M888.6,971.2c0.4,1,0.7,1.9,1,2.9"/>
		<path class="st6" d="M878.3,955.5c0.9,1,1.8,1.9,2.6,2.9"/>
		<path class="st6" d="M836.2,958.4c0.8-1,1.7-2,2.6-2.9"/>
		<path class="st6" d="M841,958.4h35.1c-0.9-1-1.9-2-2.9-2.9H844C843,956.5,842,957.4,841,958.4z"/>
		<path class="st6" d="M879.4,1018.1c-0.9,1-1.9,2-2.8,2.9"/>
		<path class="st6" d="M840.6,1021c-1-1-1.9-1.9-2.8-2.9"/>
		<path class="st6" d="M842.8,1018.1c1,1,2.1,2,3.1,2.9h25.2c1.1-1,2.1-1.9,3.2-2.9H842.8z"/>
		<path class="st6" d="M889.1,1002.4c-0.4,1-0.8,2-1.2,2.9"/>
		<path class="st6" d="M829.3,1005.4c-0.4-1-0.8-1.9-1.2-2.9"/>
		<path class="st6" d="M833.3,1005.4h50.5c0.5-1,0.9-1.9,1.3-2.9h-53.2C832.4,1003.5,832.8,1004.4,833.3,1005.4z"/>
		<path class="st6" d="M888.1,1061.6c0.4,1,0.8,1.9,1.1,2.9"/>
		<path class="st6" d="M827.9,1064.5c0.3-1,0.7-2,1.1-2.9"/>
		<path class="st6" d="M831.7,1064.5h53.6c-0.4-1-0.8-2-1.2-2.9H833C832.5,1062.6,832.1,1063.5,831.7,1064.5z"/>
		<path class="st6" d="M842.2,1048.9h32.7c-1-1-2-2-3.1-2.9h-26.6C844.2,1046.9,843.2,1047.9,842.2,1048.9z"/>
		<path class="st6" d="M877.2,1046c1,1,1.9,1.9,2.8,2.9"/>
		<path class="st6" d="M837.2,1048.9c0.9-1,1.8-2,2.8-2.9"/>
		<path class="st6" d="M880.2,925.5c-0.9,1-1.8,2-2.7,2.9"/>
		<path class="st6" d="M839.7,928.4c-0.9-1-1.9-1.9-2.7-2.9"/>
		<path class="st6" d="M875.2,925.5h-33.3c1,1,2,2,3,2.9h27.2C873.2,927.5,874.2,926.5,875.2,925.5z"/>
		<path class="st6" d="M889.4,909.9c-0.3,1-0.7,2-1.1,2.9"/>
		<path class="st6" d="M828.9,912.8c-0.4-1-0.8-1.9-1.1-2.9"/>
		<path class="st6" d="M832.9,912.8h51.4c0.4-1,0.9-1.9,1.2-2.9h-53.9C832,910.9,832.4,911.8,832.9,912.8z"/>
		<path class="st6" d="M833.3,1005.4c-0.5-1-0.9-1.9-1.3-2.9c-1.5-3.8-2.4-8-2.7-12.7c0-0.8-0.1-1.6-0.1-2.4c0-0.2,0-0.4,0-0.6
			c0.1-4.7,0.8-8.9,2.1-12.7c0.3-1,0.7-2,1.1-2.9c2.1-4.8,5.1-8.9,8.6-12.7c0.9-1,1.9-2,2.9-2.9c4.4-4.1,9.4-7.9,14.6-11.7
			c0.4-0.3,0.7-0.5,1.1-0.8c0.7-0.5,1.3-1,2-1.5c5.5-4.1,11-8.3,15.8-13.1c0.9-1,1.9-1.9,2.7-2.9c3.3-3.8,6.1-7.9,8.1-12.7
			c0.4-1,0.8-1.9,1.1-2.9c1.3-3.8,2-8,2.2-12.7c0-0.5,0-2.4,0-2.9h-3.7c0,0.5,0,2.4,0,2.9c-0.1,4.7-1,8.9-2.4,12.7
			c-0.4,1-0.8,2-1.2,2.9c-2.2,4.8-5.4,8.9-9.1,12.7c-1,1-2,2-3,2.9c-4.2,3.8-8.8,7.3-13.6,10.8c-0.4,0.3-0.7,0.5-1.1,0.8
			c-0.7,0.5-1.3,1-2,1.5c-5.9,4.3-11.7,8.8-16.7,14c-0.9,1-1.8,1.9-2.6,2.9c-3.2,3.8-5.8,7.9-7.7,12.7c-0.4,1-0.7,1.9-1,2.9
			c-1.2,3.8-1.8,8-1.9,12.7c0,0.2,0,0.4,0,0.6c0,0.8,0,1.6,0.1,2.4c0.2,4.7,1.1,8.9,2.5,12.7c0.4,1,0.8,2,1.2,2.9
			c2.1,4.8,5.1,8.9,8.5,12.7c0.9,1,1.9,2,2.8,2.9c3.8,3.7,8.1,7.1,12.4,10.3c0.5-0.3,0.9-0.7,1.4-1s0.9-0.7,1.4-1
			c0.1-0.1,0.2-0.2,0.4-0.3c-3.5-2.6-7-5.3-10.1-8.1c-1.1-1-2.1-1.9-3.1-2.9C839,1014.3,835.7,1010.2,833.3,1005.4z"/>
		<path class="st6" d="M877.2,1046c-4-4-8.5-7.5-13-11c-0.9,0.7-1.8,1.3-2.7,2c-0.1,0.1-0.2,0.2-0.4,0.3c3.8,2.8,7.5,5.7,10.8,8.7
			c1.1,1,2.1,1.9,3.1,2.9c3.7,3.8,6.9,7.9,9.2,12.7c0.5,1,0.9,1.9,1.2,2.9c1.4,3.8,2.3,8,2.5,12.7c0,0.6,0,1.2,0,1.8h3.7
			c0-0.6,0-1.2,0-1.8c-0.2-4.7-1-8.9-2.3-12.7c-0.3-1-0.7-2-1.1-2.9c-2-4.8-4.9-8.9-8.2-12.7C879,1047.9,878.1,1046.9,877.2,1046z"
			/>
		<path class="st6" d="M841.9,925.5c-3.7-3.8-6.8-7.9-9.1-12.7c-0.4-1-0.8-1.9-1.2-2.9c-1.4-3.8-2.2-8-2.4-12.7
			c0-0.5-0.4-2.4-0.4-2.9l-3.6-1.7c0,0.5,0.3,4.1,0.4,4.6c0.1,4.7,0.9,8.9,2.2,12.7c0.3,1,0.7,2,1.1,2.9c2,4.8,4.8,8.9,8.1,12.7
			c0.9,1,1.8,2,2.7,2.9c4,4.1,8.6,7.7,13.3,11.3c0.9-0.7,1.8-1.3,2.7-2c0.1-0.1,0.2-0.2,0.4-0.3c-3.9-2.9-7.7-5.8-11.1-9
			C843.9,927.5,842.9,926.5,841.9,925.5z"/>
		<path class="st6" d="M829.2,1079c0-0.6,0-1.2,0-1.8c0.2-4.7,1-8.9,2.5-12.7c0.4-1,0.8-2,1.2-2.9c2.3-4.8,5.5-8.9,9.2-12.7
			c1-1,2-2,3.1-2.9c4.1-3.7,8.6-7.1,13.3-10.5c0.4-0.3,0.7-0.5,1.1-0.8c0.7-0.5,1.3-1,2-1.5c5.2-3.8,10.3-7.7,14.9-12.2
			c1-1,1.9-1.9,2.8-2.9c3.4-3.8,6.4-7.9,8.5-12.7c0.4-1,0.8-1.9,1.2-2.9c1.4-3.8,2.2-8,2.5-12.7c0-0.8,0.1-1.6,0.1-2.4
			c0-0.2,0-0.4,0-0.6c-0.1-4.7-0.7-8.9-1.9-12.7c-0.3-1-0.6-2-1-2.9c-1.9-4.8-4.5-8.9-7.7-12.7c-0.8-1-1.7-2-2.6-2.9
			c-4.3-4.5-9.2-8.4-14.2-12.2c-0.9,0.7-1.8,1.3-2.7,2c-0.1,0.1-0.2,0.2-0.4,0.3c4.3,3.2,8.4,6.4,12.1,9.9c1,1,2,1.9,2.9,2.9
			c3.5,3.8,6.5,7.9,8.6,12.7c0.4,1,0.8,1.9,1.1,2.9c1.3,3.8,2,8,2.1,12.7c0,0.2,0,0.4,0,0.6c0,0.8,0,1.6-0.1,2.4
			c-0.2,4.7-1.2,8.9-2.7,12.7c-0.4,1-0.8,2-1.3,2.9c-2.4,4.8-5.7,8.9-9.5,12.7c-1,1-2.1,2-3.2,2.9c-3.9,3.4-8.2,6.7-12.6,9.9
			c-0.4,0.3-0.7,0.5-1.1,0.8c-0.7,0.5-1.3,1-2,1.5c-5.4,4-10.8,8.1-15.5,12.8c-1,1-1.9,1.9-2.8,2.9c-3.3,3.8-6.2,7.9-8.2,12.7
			c-0.4,1-0.8,1.9-1.1,2.9c-1.3,3.8-2.1,8-2.3,12.7c0,0.6,0,1.2,0,1.8L829.2,1079L829.2,1079z"/>
		<path class="st6" d="M829.2,1078.1c0,0.8,0,1.6,0.1,2.4h58.5c0-0.8,0.1-1.6,0.1-2.4c0-0.2,0-0.4,0-0.6h-58.6
			C829.2,1077.7,829.2,1077.9,829.2,1078.1z"/>
	</g>
	<g>
		<path class="st5" d="M832.4,1154.2h52.2c-2.1-4.8-5-8.9-8.6-12.7h-35C837.5,1145.3,834.5,1149.4,832.4,1154.2z"/>
		<path class="st5" d="M831.6,1092.9h53.8c1.4-3.8,2.2-8,2.4-12.7h-58.6C829.4,1084.9,830.3,1089.1,831.6,1092.9z"/>
		<path class="st5" d="M841.9,1108.5h33.3c3.7-3.8,6.8-7.9,9.1-12.7h-51.4C835.1,1100.6,838.2,1104.8,841.9,1108.5z"/>
		<path class="st5" d="M829.2,1169.8h58.6c-0.1-4.7-0.8-8.9-2.1-12.7h-54.5C830,1160.9,829.3,1165.1,829.2,1169.8z"/>
		<path class="st6" d="M829.2,1170.4c0,0.8,0,1.6,0.1,2.4h58.5c0-0.8,0.1-1.6,0.1-2.4c0-0.2,0-0.4,0-0.6h-58.6
			C829.2,1170,829.2,1170.2,829.2,1170.4z"/>
		<path class="st6" d="M825.6,1172.8c0-0.8-0.1-1.6-0.1-2.4c0-0.2,0-0.4,0-0.6"/>
		<path class="st6" d="M891.5,1169.8c0,0.2,0,0.4,0,0.6c0,0.8,0,1.6-0.1,2.4"/>
		<path class="st6" d="M831.3,1157.1h54.5c-0.3-1-0.7-2-1.1-2.9h-52.2C832,1155.1,831.7,1156.1,831.3,1157.1z"/>
		<path class="st6" d="M827.5,1157.1c0.3-1,0.6-2,1-2.9"/>
		<path class="st6" d="M888.6,1154.2c0.4,1,0.7,1.9,1,2.9"/>
		<path class="st6" d="M878.3,1138.6c0.9,1,1.8,1.9,2.6,2.9"/>
		<path class="st6" d="M836.2,1141.5c0.8-1,1.7-2,2.6-2.9"/>
		<path class="st6" d="M841,1141.5h35c-0.9-1-1.9-2-2.9-2.9h-29.2C843,1139.5,842,1140.5,841,1141.5z"/>
		<path class="st6" d="M888.1,1244.7"/>
		<path class="st6" d="M880.2,1108.5c-0.9,1-1.8,2-2.7,2.9"/>
		<path class="st6" d="M839.7,1111.5c-0.9-1-1.9-1.9-2.7-2.9"/>
		<path class="st6" d="M875.2,1108.5h-33.3c1,1,2,2,3,2.9h27.2C873.2,1110.5,874.2,1109.5,875.2,1108.5z"/>
		<path class="st6" d="M889.4,1092.9c-0.3,1-0.7,2-1.1,2.9"/>
		<path class="st6" d="M828.9,1095.8c-0.4-1-0.8-1.9-1.1-2.9"/>
		<path class="st6" d="M832.9,1095.8h51.4c0.4-1,0.9-1.9,1.2-2.9h-53.8C832,1093.9,832.4,1094.9,832.9,1095.8z"/>
		<path class="st6" d="M829.3,1172.8c0-0.8-0.1-1.6-0.1-2.4c0-0.2,0-0.4,0-0.6c0.1-4.7,0.8-8.9,2.1-12.7c0.3-1,0.7-2,1.1-2.9
			c2.1-4.8,5.1-8.9,8.6-12.7c0.9-1,1.9-2,2.9-2.9c4.4-4.1,9.4-7.9,14.6-11.7c0.4-0.3,0.7-0.5,1.1-0.8c0.7-0.5,1.3-1,2-1.5
			c5.5-4.1,11-8.3,15.8-13.1c0.9-1,1.9-1.9,2.7-2.9c3.3-3.8,6.1-7.9,8.1-12.7c0.4-1,0.8-1.9,1.1-2.9c1.3-3.8,2-8,2.2-12.7
			c0-0.5,0-1,0-1.5h-3.7c0,0.5,0,1,0,1.5c-0.1,4.7-1,8.9-2.4,12.7c-0.4,1-0.8,2-1.2,2.9c-2.2,4.8-5.4,8.9-9.1,12.7c-1,1-2,2-3,2.9
			c-4.2,3.8-8.8,7.3-13.6,10.8c-0.4,0.3-0.7,0.5-1.1,0.8c-0.7,0.5-1.3,1-2,1.5c-5.9,4.3-11.7,8.8-16.7,14c-0.9,1-1.8,1.9-2.6,2.9
			c-3.2,3.8-5.8,7.9-7.7,12.7c-0.4,1-0.7,1.9-1,2.9c-1.2,3.8-1.8,8-1.9,12.7c0,0.2,0,0.4,0,0.6c0,0.8,0,1.6,0.1,2.4"/>
		<path class="st6" d="M841.9,1108.5c-3.7-3.8-6.8-7.9-9.1-12.7c-0.4-1-0.8-1.9-1.2-2.9c-1.4-3.8-2.2-8-2.4-12.7c0-0.5,0-1,0-1.5
			h-3.7c0,0.5,0,1,0,1.5c0.1,4.7,0.9,8.9,2.2,12.7c0.3,1,0.7,2,1.1,2.9c2,4.8,4.8,8.9,8.1,12.7c0.9,1,1.8,2,2.7,2.9
			c4,4.1,8.6,7.7,13.3,11.3c0.9-0.7,1.8-1.3,2.7-2c0.1-0.1,0.2-0.2,0.4-0.3c-3.9-2.9-7.7-5.8-11.1-9
			C843.9,1110.5,842.9,1109.5,841.9,1108.5z"/>
		<path class="st6" d="M825.6,1260.3"/>
		<path class="st6" d="M891.5,1172.8c0-0.8,0.1-1.6,0.1-2.4c0-0.2,0-0.4,0-0.6c-0.1-4.7-0.7-8.9-1.9-12.7c-0.3-1-0.6-2-1-2.9
			c-1.9-4.8-4.5-8.9-7.7-12.7c-0.8-1-1.7-2-2.6-2.9c-4.3-4.5-9.2-8.4-14.2-12.2c-0.9,0.7-1.8,1.3-2.7,2c-0.1,0.1-0.2,0.2-0.4,0.3
			c4.3,3.2,8.4,6.4,12.1,9.9c1,1,2,1.9,2.9,2.9c3.5,3.8,6.5,7.9,8.6,12.7c0.4,1,0.8,1.9,1.1,2.9c1.3,3.8,2,8,2.1,12.7
			c0,0.2,0,0.4,0,0.6c0,0.8,0,1.6-0.1,2.4"/>
		<path class="st6" d="M829.3,1260.3"/>
		<path class="st6" d="M829.2,1077.8c0,0.8,0,1.6,0.1,2.4h58.5c0-0.8,0.1-1.6,0.1-2.4c0-0.2,0-0.4,0-0.6h-58.6
			C829.2,1077.4,829.2,1077.6,829.2,1077.8z"/>
	</g>
	<line class="st7" x1="2041.9" y1="2205.4" x2="592.6" y2="2205.4"/>
	<g>
		<g>
			<path class="st5" d="M834.6,878.2c17,0,34.1,0,51.1,0c0.7-4.8,2-8.9,1.9-12.7c-10.9,0-21.8,0-32.7,0
				C847.5,869.3,839.9,873.5,834.6,878.2z"/>
			<path class="st5" d="M831.9,881.2c-4.4,0.5-10,6.5-3.1,13c19.3-0.1,38.6-0.2,57.9-0.3"/>
			<path class="st6" d="M889.8,878.2c-0.2,1-0.3,1.9-0.4,2.9"/>
			<path class="st6" d="M828,881.2c0.7-1,1.6-2,2.6-2.9"/>
			<path class="st6" d="M831.9,881.2c17.9,0,35.8,0,53.6,0c0-1,0.1-2,0.3-2.9c-17,0-34.1,0-51.1,0
				C833.6,879.2,832.7,880.2,831.9,881.2z"/>
			<path class="st6" d="M854.9,865.5c10.9,0,21.8,0,32.7,0c0-1-0.1-2-0.2-2.9c-8.9,0-17.7,0-26.6,0
				C858.9,863.6,856.9,864.5,854.9,865.5z"/>
			<path class="st6" d="M892.7,862.6c0.1,1,0,1.9-0.1,2.9"/>
			<path class="st6" d="M849.9,865.5c1.9-1,3.7-2,5.6-2.9"/>
			<path class="st6" d="M892.3,893.9c-0.3,0-0.7,0-1,0c1.5-4.5-1.5-9.2-1.5-12.7c0-1-0.2-2,0-2.9c0.9-4.8,2.6-8.9,2.9-12.7
				c0.1-1,0.1-2,0.1-2.9c1.1-4,0.6-15.6-7.9-19c0,0.7-0.1,6.5-1.7,7.1c0,0.1,0.5,3.1,0.2,3.2c2.3,2.8,3.6,5.7,4.1,8.7
				c0.2,1,0.2,1.9,0.2,2.9c0.1,3.8-1.2,7.9-1.9,12.7c-0.1,1-0.2,1.9-0.3,2.9c0,3.8,0.6,8,5.8,12.7"/>
			<path class="st6" d="M872.8,853.1c-2.1,1-19.8,10.2-23.9,12.4c-6.8,4.3-13.2,7.9-18.3,12.7c-1,1-1.9,1.9-2.6,2.9
				c-2,3.4-4.1,5-1.4,10.7c0.2,0.6,3.3,3.2,4.3,3.7c0.4,0,0.8,0,1.2,0c-0.1,0-2.4-2.1-2.8-2.7c-4-4.7-0.2-8,2.6-11.8
				c0.8-1,1.7-2,2.7-2.9c5.3-4.8,12.9-8.9,20.3-12.7c2.3-1,14.8-10.2,15.7-11.2c3.1-1.8,8-5.8,9.7-9.5c2.1-3.6,1-7,2.3-7.5"/>
		</g>
	</g>
	<g>
		<g>
			<defs>
				<polygon id="SVGID_1_" points="2454.4,455.5 2454.4,847.5 2430.9,847.5 2430.9,1881.1 959.4,1881.1 959.4,2333.3 167.4,2333.3 
					167.4,1311.9 912.1,1277.1 924.5,854.1 837.4,847.5 837.4,455.5 				"/>
			</defs>
			<clipPath id="SVGID_00000043423413459407297840000009995434235301794707_">
				<use xlink:href="#SVGID_1_"  style="overflow:visible;"/>
			</clipPath>
			<g style="clip-path:url(#SVGID_00000043423413459407297840000009995434235301794707_);">
				<path class="st2" d="M786.3,896.8c7.6-4.9,16.1-6.6,24.6-8.2c15.7-2.6,31.9-3.2,47.1-7c13.6-3.3,27.1-11.2,24.4-26.7
					c-2.6-15.2-11-28.7-17.7-42.6c-9.1-18.6-21.8-42.9-7.3-62.1c5.1-7.2,11.9-12.7,18.9-17.7c9.9-7,20.7-13,30.7-19.4
					c6.2-4.1,12.8-8.4,17.9-13.7c3.9-3.9,5.6-7.8,6.5-12.8c3.2-17,1.2-34.7-0.5-52.1c-1.3-14.3-3.9-29-1.9-43.6
					c2-13.2,11.2-20.1,25.3-15.7c10.3,3.3,19.1,9.4,28,15c9.7,6.1,19.2,12.9,29.8,16.1c3.9,1,6.8,1.2,9.5-0.2c1.6-1,2.5-2.3,3.7-4.1
					c11.9-20,10.1-72.8,36.5-78.4c10.3-1.9,19.7,4.5,27.3,10c12.7,9.5,23.9,21.6,36.8,29.8c3,1.8,6.1,3.3,8.6,3.8
					c1.1,0.2,2.1,0.4,3.2,0.1c0.2,0,0.4-0.1,0.7-0.2c0.9-0.2,1.7-0.7,2.6-1.2c5.8-3.2,11-9.5,15.8-14.6c11.6-12.5,27-34.7,44.6-37.4
					c13.5-1.8,24.5,8.9,31.2,18.9c9.2,13.8,15.1,29,22.6,43.4c5.8,10.7,13.7,26.5,27,28c10.7,1.2,21.2-2.2,31.9-5.3
					c7.5-2.3,15-5,22.9-7.4c17-5.2,38-10.8,53.6,1.5c19.5,15.4,26.4,44.7,36,66.4c3.2,7.1,6.5,14.8,11.9,20c1.5,1.4,2.6,2.1,4.6,2.8
					c3.1,1.1,6.1,1.7,9.1,1.7c13.5,0.4,24-10.8,32.5-21.1c9.7-11.6,17.9-26.3,30.5-35.8l1.4-1.1l1.5-1l2.9-1.9
					c40.4-23.5,97.9-5.6,142.5-12.4c14.9-2,27.9-8.7,40.9-16.4c27.7-16.4,54.8-38.5,87.4-45.9c15.4-3.5,32.8-3,47.4,3.8
					c10.1,4.5,19.5,11.4,27.3,18.5c18.1,16.1,33.6,35.8,50.4,52.2c15.8,15.5,33.2,29,55.9,31.1c43,5.1,90-7.7,131.2,11.9
					c5.2,2.6,10.4,5.8,14.9,9.6c7.2,6.1,13,14,17.3,22.2c15.3,29.4,16,63.2,26.7,93.7c2.4,6.9,5.5,13.1,9.3,18
					c8.6,11,21.8,18.8,34.4,25.7c15.8,8.5,32.8,15.8,48.5,25.2c14.9,8.9,29.3,20.4,36.3,36.8c0.5,1.1,0.9,2.3,1.3,3.4l0.6,1.7
					l0.5,1.7l1,3.5l0.7,3.5l0.3,1.8l0.2,1.8l0.5,3.5c3.3,38.5-17.3,73.8-22.9,110.8c-0.6,5.4-0.8,10.3,0.2,15.5
					c4.1,19.5,12.8,37.2,24.2,54c10.9,16.3,24.1,30.9,36.6,46.4c6.3,7.9,14,17.7,14,28.6c0.1,2.2-0.1,5.2-0.3,7.3
					c-3.6,36.7-31,65.8-48.9,95.3c-7.3,12.2-14,24-14.6,38s3.7,28.5,8.1,42.1c7.7,23.6,19.6,48.5,22.5,74.6
					c3.6,31.1-10.9,54-36.5,70.7c-14.3,9.4-29.8,15.9-44.9,22.7c-19.5,8.9-37.3,15.9-51.4,30.3c-10.7,12.2-17.2,28-24.4,43.1
					c-15.9,34.7-34.3,72.5-75.2,81.7c-39.8,9.7-67-17.2-89.8-44.9c-14.4-17.4-30.2-37.3-46.8-51.4c-4.9-4.3-9.3-7.8-15.6-10.2
					c-21.1-7.6-43.9-7.8-67.3-11.4c-31.4-4.1-65.2-12.2-92-30.9c-2-1.6-4-3-5.8-4.7c-2.1-1.8-4.6-4.3-6.5-6.2
					c-30.8-33.1-46.3-80.8-83.3-107c-3.4-2.3-7.1-4.6-10.8-6.3c-7-3.5-14-4.8-22.7-5.5c-31.6-1.3-61.8,6.6-94.3,7.2
					c-21.1,0.7-43.1-1.9-62.9-10.3c-28.3-11.8-53.5-31.7-76.6-50.7c-23-18.4-46.7-40.1-74-48.6c-6.1-1.9-12.9-2.7-19.3-3
					c-54.6-0.9-102.1,35.9-154.4,49.1c-50.3,13-102.6-4.7-150.7-16.9c-22.5-5.3-43.7-10.7-65.3-6.4c-35,8.8-65.6,29-93.1,52.4
					c-18.2,15.3-34.9,32.9-53.8,48.7c-8.8,7-19,14.5-31.6,15.7c-2.4,0.2-3.7,0.1-5.9,0c-1,0-1.8-0.2-2.7-0.3l-2.6-0.4
					c-17.7-3.5-31.2-14.4-44.8-24.8c-23.4-17.9-46.1-39.7-73.3-46.7l-2.2-0.5l-2.2-0.4c-1.6-0.3-2.6-0.3-3.7-0.5
					c-8.9-0.2-16.9,2.3-26.1,6c-14.8,6.1-27.7,13.6-41.5,20.6c-20.4,10.4-43.3,20.7-67.1,19.7c-38.9-2-71.8-26.7-106.6-40.3
					c-3.1-1.1-6.2-2.2-9.3-3c-3-0.8-5.7-1.3-8.2-1.5c-2.5-0.3-4.5-0.1-6.2,0.2c-3.9,0.8-7.4,2.8-10.2,5.6
					c-5.6,5.7-8.3,12.6-10.7,21.6c-7,28.3-6.6,59.2-13.1,88.1c-6.5,27.2-20.1,52.2-31.1,76.6c-14.5,31.2-27.4,62.4-32.8,96.2
					c-2.4,15.7-3.3,31.9-1.5,47.7c2,15.5,7.1,30.5,13.7,44.9c9.7,21,21.5,40.4,33.7,60.7c44.8,73.4,56.8,104.5,60.5,191.2
					c2.7,42.4,0.3,103.5,27.3,136.2c34.3,43,95,45.2,146.1,45.6c15.7,0.1,31.6-0.2,47.9-0.3v50c-15.8-0.1-31.9,0.1-48.3-0.1
					c-69.7-0.5-144-9.2-187.8-70.9c-17.8-24.8-24.8-55.2-28.2-84.7c-3.6-32.5-3.3-64.9-5.4-97c-2.9-42.2-8.5-68.3-28.4-105.7
					c-22.5-43.1-52.9-83.8-68.5-130.9c-3.8-11.8-6.7-24.6-7.9-37.2c-1.9-21-0.3-42.3,3.6-63c6.6-35.2,20.8-69.3,35.9-101.2
					c10.1-22.1,21.7-42.7,28-65.2c7.4-30.4,6.4-61.4,14.7-92.2c4.1-15.2,10.9-30.1,22.7-41.2c45.6-42.1,99,2.9,143.9,21
					c8.4,3.3,15.5,5.8,23.7,6.9c3.4,0.5,6.8,0.6,10.1,0.3c14.7-1.8,27.2-8.2,40.7-14.8c19.6-9.9,39.9-21.6,61.3-27.4
					c9-2.3,17.7-3.6,27.3-3.1c40.8,3.3,74,33.5,103.7,57.3c5.5,4.3,11.6,9.1,17.4,12.6c3.7,2.2,6.7,3.8,10.2,4.5
					c0.1,0,0.3,0.1,0.3,0.1c0.1,0,0.1,0,0.2,0c0,0,0.2,0.1-0.1,0c-0.8,0.1-0.7,0.2-0.1-0.1c3.6-1.6,6.5-4,10.2-6.8
					c18.1-15,34.7-32.3,53.4-47.8c31.8-26.8,68.8-50.3,110-60c10.7-2.4,21.9-2.7,32.1-2.1c55.6,4.1,107.3,32.4,162.9,30
					c6.9-0.3,13.4-1.4,20.2-3c54.3-14.8,105.5-51.9,164.9-49.1c6.8,0.3,14.4,1.2,21.1,2.7c11.4,2.6,22.6,7.4,32.4,12.8
					c44.9,25,77.4,66.5,123.3,88.5l2.4,1.1l2.4,1.1l2.5,1l2.5,1c0.8,0.3,1.6,0.5,2.4,0.8c44.2,14.1,92.7-4.3,138.9-1.2
					c9.5,0.7,19.1,2.4,28.3,5.9c17.2,6.9,32.4,18.8,44.7,32.3c17,18.4,30.2,41.1,43,61.5c6.9,10.9,13.4,21,21.9,30.2l0.9,0.9
					l1.7,1.8l1.8,1.6l0.9,0.8l0.9,0.7l1.8,1.4c4.1,2.9,8.7,5.4,13.2,7.7c27,13.6,57.6,17.2,87.8,20.9c12.2,1.6,25.3,3.2,37.5,6.4
					c9.4,2.4,18.5,5.8,26.9,11.3c17.4,12.6,32.4,29.6,45.6,45.4c15.2,17.8,27.5,36.4,45.9,48.8c1.3,0.9,2.6,1.5,4,2.3l2,0.9
					c0.3,0.1,0.7,0.3,1,0.5l1,0.3l2,0.7c1,0.2,2,0.5,3,0.8l1,0.1c0.7,0.1,1.4,0.2,2,0.3c11.1,1,24.6-3.3,33.4-11
					c0.6-0.5,1.2-1,1.8-1.6l1.8-1.6l1.7-1.8c13.3-14.2,21.2-32.2,29.7-49.9c9.3-19.2,18.3-40.3,34.7-55.3c28-25,66.2-32.5,97-52
					c10.6-6.7,20.3-15.8,23.5-28.1c3.1-12.6-0.5-26.9-4.3-39.8c-9.4-31-26-63-24.7-97.1c1.9-49.5,59.3-89.7,64.5-134.4
					c0-0.8,0.2-1.6,0.2-2.3v-2.3c0-0.4,0-0.9,0-0.5c0,0.1,0.1,0.4,0.1,0.3s-0.1-0.1-0.1-0.2s-0.2-0.4-0.2-0.5
					c-0.3-0.8-1-2.1-1.8-3.4c-1.7-2.7-3.9-5.6-6.2-8.6c-26.1-31.7-54.6-65-64-106.7c-2.4-9.2-2.6-19.1-1.4-28.3
					c4.1-35.4,32.4-84.5,21-117.1c-4-12.3-16.2-21.3-27.2-28c-29.9-18.3-65.9-28.6-88.8-57.1c-10.8-14.2-15.7-32.1-19.5-48.9
					c-5.1-22.5-7.9-46.1-18.1-66.6c-3.4-6.7-7.8-12.6-13.7-17.1c-3.3-2.5-7-4.6-10.8-6.3c-15.1-6.7-31.9-8-48.5-8.3
					c-32.5-0.9-67.7,4.9-99.3-8.1c-30.9-14-52.4-42.3-74.6-66c-10.8-11.6-22.3-23.2-36.1-30.5c-18.4-9.5-39.7-5.2-58,3.2
					c-33,14.7-60.7,41.4-96.1,52c-20.5,5.5-42,4.5-62.7,3.6c-26.7-0.9-57.3-5-81.7,5.8c-1.1,0.4-3.4,1.8-4.5,2.3l-2.1,1.4l-1.1,0.7
					c-0.4,0.4-2.5,1.9-3,2.3c-10.1,9-16.6,20.5-25.6,31.2c-11.1,13.8-27.2,28.1-46.6,27.2c-7.3-0.3-13.9-1.9-20.1-5.5
					c-6.8-4.1-11.8-11.6-15.3-18.1c-10.7-20.3-15.3-43.2-27.6-62.3c-4-5.7-8.7-11.2-15.6-12.7c-10.2-1.7-21.3,1.6-31.3,4.5
					c-7.5,2.3-15.1,4.8-22.9,7.2c-12.1,3.6-25.4,7.4-38.8,5.7c-15-1.7-25.5-13.6-32.6-25.6c-8.4-13.8-14.3-29.3-21.8-43.3
					c-3.4-6.4-7.2-12.8-12.2-17.6c-3-2.7-5.7-4.6-9.2-4.7c-1.4,0.1-3,0.5-4.3,1.2c-5.9,3-11.5,8.3-16.2,13.4
					c-8.1,8.6-15.8,18.4-24.6,26.9c-5.9,5.6-14.3,12.3-23.3,11.7c-6.4-0.1-12.8-3.4-17.5-6.3c-7.3-4.6-13.5-10-19.8-15.5
					c-8.9-7.6-16.9-15.7-26.9-21.1c-1.5-0.7-2.9-1.3-4.1-1.6c-1.5-0.3-2.5-0.4-3.6-0.1c-1.2,0.5-2.3,1.2-3.2,2.3l-0.7,0.8l-0.6,0.9
					c-5.9,9.2-8,20.4-10.8,31.4c-3.5,13.2-6.2,32.1-16.6,42.3c-17,14.8-41.9-4.6-56.8-13.9c-6.5-4.2-13-8.6-19.8-11.8
					c-3.4-1.5-6.9-3-10.4-2.6c-0.5,0.1-0.6,0.1-0.8,0.3c-0.2,0.1-0.4,0.2-0.6,0.5c-0.2,0.3-0.5,0.7-0.7,1.2
					c-1.3,2.6-1.5,6.2-1.7,9.3c-0.4,11.6,1.2,23.2,2.3,35c1.8,19.4,3.9,39.5-0.7,58.9c-1.4,6-5.1,11.6-9,15.5
					c-6.1,6.2-13,10.9-20.2,15.4c-13.4,8.5-27.4,15.6-39.3,25.9c-5.5,4.9-10.1,10.5-11.4,16.6c-1.3,6.6,0.3,13.9,2.6,20.5
					c2.5,7.1,5.9,14.2,9.3,21.4c7.1,14.8,15.8,29.4,18.4,46.1c2.5,15.4-6.5,28-20.2,34.1c-22.7,9.9-48.1,7.2-71.4,13.5
					c-3.5,1-6.9,2.3-9.7,4.1C791.8,905.1,786.3,896.8,786.3,896.8L786.3,896.8z"/>
			</g>
		</g>
		<g>
			<defs>
				<polygon id="SVGID_00000145055004717719900710000008570768936679623320_" points="2454.4,455.5 2454.4,847.5 2430.9,847.5 
					2430.9,1881.1 959.4,1881.1 959.4,2333.3 167.4,2333.3 167.4,1311.9 912.1,1277.1 924.5,854.1 837.4,847.5 837.4,455.5 				"/>
			</defs>
			<clipPath id="SVGID_00000108291828292759988100000013691539601828468357_">
				<use xlink:href="#SVGID_00000145055004717719900710000008570768936679623320_"  style="overflow:visible;"/>
			</clipPath>
			<g style="clip-path:url(#SVGID_00000108291828292759988100000013691539601828468357_);">
				<path class="st2" d="M796.9,912.1c0.8-5.4,10.2-9.8,14.2-12.6c21.1-12.8,42.4-26.4,58.6-45.1c6.3-7.3,11.8-15.4,15.7-24
					c1.8-4.1,3.5-8.1,3.8-12.7c0.4-4.3,0-9-0.9-13.6c-3.8-19.4-12.7-37.9-18.2-57.3c-3.3-11.6-5.9-23.9-4-36.1
					c3.1-21.2,22.8-35.1,39.8-44.8c17-10.2,35.8-17.5,50.6-30.6c3.3-3.1,6-6.5,7.7-10c2-4.5,4-9.2,5.9-13.8
					c6.7-16.5,15.8-39.5,22.2-56.3c4.7-11.8,9.3-24.1,15.6-35.5c2.5-4.2,5.5-9.5,10.9-11.5c1.8-0.6,4.3-0.7,6.2,0.1
					c2.1,0.8,3.3,2,4.2,3c0.4,0.5,0.8,1,1,1.3l0.7,1c9.1,14.4,11.5,47.1,27.1,54.8c1.9,0.8,4.1,1.3,6.2,1.1c1.1,0,1.7-0.1,2.8-0.6
					c3.1-1.7,6.3-5.1,8.6-8.2c2.8-3.7,5.5-7.8,8.1-12c8.5-13.3,15.2-27.5,26.9-38.8c11.6-11.1,24.7-10.5,36.3,0.1
					c11.8,10.8,19.4,24.6,28.8,37.1c4.1,5.4,8.2,11,13.6,14.4c6.5,4.4,22.6-2.3,30-4.8l14.2-5.3c10.4-3.6,21-7.7,32.5-7.2
					c5.5,0.3,11.3,2.3,15.3,6.5c1.1,1.1,2.3,2.8,3.2,4.1c14.2,22.1,17.6,48.8,26.9,72.5c5.7,14.5,13,29.2,28.2,33.7
					c5.9,1.6,11.6,0.7,17.8-1.1c23.5-8,43.4-23.9,66.4-34.2c11-5,22.8-8.9,35.2-9.3c10.4-0.2,21,3.5,30.1,7.9
					c18.6,8.9,34.9,21.2,52.8,30.1c9.1,4.6,18.1,7.9,27.2,8.6c0.8,0,2.3,0,3.1,0.1l1.5-0.1c6.1-0.3,11.2-2.4,16.5-6.1
					c7.4-5.2,13.7-12.5,19.6-19.7c16.5-19.9,30.4-44.1,53.6-57.7l1.9-1.1l2-1l2.1-1l2.1-0.8c14.2-6.1,31.2,5.4,43,12.1
					c33.5,20.7,66.6,43.7,105.4,52c3.1,0.7,6.4,1.2,9.5,1.3c10.3,0.2,20.6-2.1,30.7-4.9c14.6-4,28.6-9.1,43.4-13.3
					c25.9-7.5,56.1-12.8,81.5-0.1c24.3,12.7,39.3,37,54.9,58.3c11.2,15.4,22.6,31.7,37.8,42.6c14.8,11.2,33.1,12.3,51.5,12.5
					c14.8,0,30.3-1,45.4-1.1c10.7,0,21.4,0.4,32.1,2.1c17.2,2.7,34.6,10.2,46.3,23.6c15.5,17,21.2,40,23.9,62.1
					c2.6,20.3,2.8,40.7,5,60.6c1.5,13.9,4.1,27.2,10.6,39.6c16.5,31.1,43.4,56,59.6,87.7c8.7,16.6,14,36,10.9,54.9
					c-5.7,36.2-33,64.7-53.9,92.8c-8.3,11.1-16.8,22.8-21.7,35.6c-1.1,2.9-2,5.8-2.6,8.9c-3.8,19.5-3.7,39.6,0.1,59.2
					c3.6,18.8,10.4,36.5,19,53.7c3.1,6.1,6.4,12.5,9.5,18.7l0.9,2c0.6,1.4,1.3,2.8,1.9,4.7c0.2,0.5,0.3,0.8,0.4,1.2l0.3,1.1l0.6,2.2
					l0.6,2.2l0.5,2.2c0.3,1.5,0.6,3,0.8,4.5c3.1,20.6-3.1,41.5-13.1,59.2c-10.3,18.7-23.8,34.7-36.6,51.1
					c-12,15.2-23.2,29.6-29.6,47.7c-10.6,28.5-16.3,60-31,87.4c-10.6,20.4-27.5,38.4-49.5,46.3c-12.3,4.3-25.5,4.8-38,3.5
					c-40.3-4.3-76.8-23.5-117.1-24.3c-8.7-0.1-16.7,1.3-25.1,4.1c-51.4,18.3-99.9,63.4-159.1,41.4c-29.8-10.3-51.7-35.1-68.8-59.9
					c-5.1-7.1-10.9-15.9-16.7-21.5c-0.8-0.8-1.4-1.3-2.3-1.8c-0.2-0.2-0.4-0.2-0.6-0.4c-0.1-0.1-0.1-0.1-0.1,0
					c-2.7-0.8-5.6-0.2-8.2,1c-7,3-14.6,9.5-21.2,14.7c-18.3,15.1-39.3,30.4-62.6,38.2c-6.5,2.4-13.7,4.2-20.5,5.6
					c-4,0.9-8.3,1.4-12.4,1.1l-1.4-0.1l-2.8-0.3c-8.9-1.3-18.4-4.9-26-8.4c-14.5-6.6-26.7-13.6-40.7-19.4
					c-15.1-6.3-31.5-11.2-47.8-8.2c-0.4,0.1-1,0.1-1.2,0.2c-2.1,0.5-4.9,1.8-8,3.9c-6.8,4.6-13.3,11.7-19.2,18.1
					c-14,15.4-27.3,32.3-45,45.4c-9.9,7.3-21.4,13.3-33.9,15.8l-6.8-33.3c15.9-3.5,29-15.7,40.7-28.1c14.5-15.1,27.5-32.9,45.4-45.4
					c4.2-2.9,9-5.5,13.9-7.1c4-1.5,8.5-2.2,12.7-2.8c21.3-2.7,42.7,3,61.9,11.3c14,5.9,28.3,14,41.3,20c5.3,2.3,9.7,4.3,14.6,5.5
					c0.4,0.1,0.8,0.2,1.2,0.2l1.2,0.2c0.3,0,0.7,0.1,1,0.1l0.5,0.1c0.6,0,1.2,0,1.8-0.1c0.1,0,0.2,0,0.3,0c0.1,0,0.5-0.1,0.7-0.1
					l1.6-0.3l3.3-0.6c6.5-1.5,12.9-3.4,19-5.9c17.5-7.2,31.9-18.1,47-30.3c10.9-8.5,22.3-18.2,36.8-21.6c9.1-2.2,19.3-1.4,27.7,3.2
					c3.4,1.8,6.7,4.4,9.4,6.9c8.8,8.7,14,17,20.6,26.3c13.2,18.9,27.2,36.9,48,46.6c6.5,3,13.7,5.2,20.8,6.2c9.3,1,18.7,0,28-2.5
					c33.8-9.3,62.8-31,96.4-42c7.4-2.4,15.7-4.4,23.7-5.1c4.7-0.4,10.4-0.5,15.1-0.3c39.7,1.5,77,20.1,115.6,25.1
					c17.6,2.1,31.2-1.1,44.4-13.7c9.6-9.2,16.1-21,21.2-33.2c12-28.1,16.9-58.7,30.7-86.6c12.2-23.4,30.6-42.6,46-63.2
					c16.2-21.4,33-47.5,24.2-74.7c-0.4-1.4-1.7-3.8-2.4-5.3c-7.6-15-15.3-30.1-20.9-46.2c-11-30.6-14.7-64.1-8.8-96.2
					c1-5.7,2.4-11.6,4.5-17c4.1-10.6,9.8-20.1,16.1-29.1c11.7-16.8,25.1-32,36.9-48.4c9.3-12.9,18.3-27.2,21.5-42.4
					c4.4-19.6-4.2-39-14.6-55.4c-19.2-30.8-46.5-56.2-58.6-91.5c-6.3-20.3-7.2-42.1-8.4-62.9c-2.3-33.7-3-79.7-40.7-92.7
					c-17.9-6.1-37.3-5.4-56.1-5c-26.3,0.4-54.3,3.1-79.6-7.6c-34.5-15.7-53.3-53.2-74.9-80.8c-9.6-12.3-20.3-24.9-35.1-30.3
					c-10.6-3.5-21.4-3.8-33-2.5c-19.3,2.4-38,8.9-56.9,14.7c-16.7,5-33.7,10.2-51.5,9.7c-4.3-0.2-8.8-0.8-13-1.8
					c-41.1-8.9-76.3-33.2-111-55c-7.6-4.4-15.3-9.6-23.6-11.3c-0.7-0.1-1.2-0.1-1.5,0c-0.1,0-0.2,0-0.3,0l-1.3,0.5
					c-6.1,2.3-11.1,5.9-16.2,10.3c-22.5,20.2-36.3,50-61.4,68.2c-15.4,11.2-34.1,11.2-51.4,4.9c-24.3-8.7-44.7-25.7-67.3-36.8
					c-5.3-2.5-10.3-4.6-15.8-5.7c-19.6-3.9-44.2,11.1-61.4,20.6c-19.7,10.8-45.7,28.5-69.5,21.8l-1.2-0.3c-0.4-0.1-0.7-0.3-1.1-0.4
					l-2.1-0.8l-1.1-0.4c-0.4-0.2-0.7-0.3-1-0.5l-2.1-1c-10.6-5.6-18.2-15.2-23.5-25.3c-7.3-14-11.5-29.6-15.8-44.3
					c-4.4-14.6-8.1-29-16.5-41.4c-1.4-1.8-3-2.3-5.8-2.6c-8.1-0.3-18.2,3.2-26.3,6.2c-8.2,3-20.7,7.8-29.3,10.1
					c-8.9,2.3-19.5,4-27.8-1.6c-7.5-4.8-12.7-11.7-17.6-18.3c-6-8.2-11.3-16.7-17.4-24.7c-2.9-3.8-6-7.4-9.1-10.3
					c-1.6-1.4-3.2-2.7-4.7-3.5s-2.9-1.2-4.1-1.2c-1.2-0.1-2.4,0.2-3.9,1c-1.5,0.7-3,1.9-4.6,3.3c-6.5,6.3-11.9,14.8-16.8,22.8
					c-7,11.1-13.1,22.9-22.6,32.5c-3.3,3.3-8.3,6.7-13.6,7.4c-0.6,0.1-1,0.1-1.4,0.1h-1.2c-0.8,0-1.6,0.1-2.4,0
					c-6.5-0.2-13.4-3.3-17.9-7.9c-2.3-2.2-4.2-4.6-5.8-7c-6-9.4-8.9-19.5-12.1-29.7c-2.2-6.7-3.7-13.1-7.2-18.7
					c0.1,0.1,0.3,0.4,1.2,0.7c0.7,0.3,1.9,0.3,2.5,0.1c0.5-0.2,0.5-0.2,0.4-0.2c-1.6,1.3-2.6,3.4-4.1,5.6
					c-5.9,10.7-10.3,22.2-15,33.8c-6.9,16.9-15.5,40-22.6,56.4c-2,4.7-4,9.3-6.1,14.1c-2.6,5.6-6.5,10.2-10.6,13.9
					c-22.8,20.1-54.6,27.9-76.4,48.6c-10.9,10.4-13,22-10.6,36.7c2.4,14.6,7.7,28.3,12.7,42.6c4.9,14.7,10.8,30.3,9.5,46.5
					c-0.4,5.5-2.6,11.1-4.8,16.2c-15.7,33.8-47.9,55-78.8,73.3c-3.5,2.1-6.9,4.1-9.9,6.7c-0.1,0.1-0.1,0.2-0.1,0.1
					c0-0.1,0.3-0.3,0.4-1.1C806.8,913.8,796.9,912.1,796.9,912.1L796.9,912.1z"/>
			</g>
		</g>
	</g>
	<line class="st10" x1="873" y1="852.9" x2="879.6" y2="849.8"/>
	<line class="st11" x1="869.4" y1="817.4" x2="893.5" y2="816.6"/>
	<line class="st12" x1="1216.4" y1="527.2" x2="1211.1" y2="567.3"/>
	<line class="st13" x1="1018.6" y1="517.4" x2="1034.7" y2="593.7"/>
	<line class="st11" x1="941.5" y1="585.4" x2="965.3" y2="633"/>
	<line class="st11" x1="937.6" y1="689" x2="916" y2="667"/>
	<line class="st11" x1="883.7" y1="697.5" x2="905.7" y2="716.7"/>
	<line class="st11" x1="855.9" y1="761.2" x2="885.4" y2="767.3"/>
	<line class="st11" x1="857.6" y1="781.7" x2="889.3" y2="781.8"/>
	<line class="st11" x1="863" y1="799.9" x2="897.6" y2="799.9"/>
	<line class="st11" x1="872" y1="716.5" x2="894" y2="724.5"/>
	<line class="st11" x1="894.1" y1="676.5" x2="926.3" y2="710.6"/>
	<line class="st14" x1="1058.7" y1="529.1" x2="1072.4" y2="570.8"/>
	<line class="st11" x1="960.4" y1="586.6" x2="972" y2="618"/>
	<line class="st11" x1="934.8" y1="614" x2="954.4" y2="640.3"/>
	<line class="st14" x1="1118" y1="515.2" x2="1119.1" y2="566.5"/>
	<line class="st13" x1="1004.7" y1="541.6" x2="1028.3" y2="606.4"/>
	<line class="st13" x1="995.1" y1="567.4" x2="1009.3" y2="608.4"/>
	<line class="st12" x1="1140.6" y1="515.8" x2="1144.1" y2="568.9"/>
	<line class="st12" x1="1192.4" y1="523.7" x2="1194.7" y2="574.7"/>
	<line class="st12" x1="1273" y1="556.9" x2="1246.2" y2="585.9"/>
	<line class="st15" x1="1287.1" y1="577.4" x2="1265.3" y2="598.8"/>
	<line class="st15" x1="1366.1" y1="598.6" x2="1338.3" y2="670.6"/>
	<line class="st15" x1="1336.2" y1="598.4" x2="1313" y2="648.4"/>
	<line class="st16" x1="1456.7" y1="622.6" x2="1456.9" y2="694.1"/>
	<line class="st16" x1="1388.9" y1="603.2" x2="1376.4" y2="659.8"/>
	<line class="st16" x1="1438.5" y1="629.2" x2="1426.4" y2="674.6"/>
	<line class="st17" x1="1474.9" y1="628.3" x2="1485.8" y2="672.9"/>
	<line class="st17" x1="1568.2" y1="628.4" x2="1573.9" y2="674"/>
	<line class="st17" x1="1543.7" y1="618.7" x2="1543.7" y2="664.6"/>
	<line class="st18" x1="1588.8" y1="615.3" x2="1608" y2="654.9"/>
	<line class="st18" x1="1665.8" y1="584.4" x2="1683.1" y2="620.8"/>
	<line class="st18" x1="1865.3" y1="583.2" x2="1866.2" y2="648.6"/>
	<line class="st19" x1="1758.3" y1="574.2" x2="1755.8" y2="623.5"/>
	<line class="st19" x1="1790.4" y1="561.5" x2="1787.1" y2="636.3"/>
	<line class="st19" x1="1829" y1="561.9" x2="1829" y2="646.7"/>
	<line class="st19" x1="1965.2" y1="625.6" x2="1961.4" y2="663.5"/>
	<line class="st20" x1="2083.8" y1="670.8" x2="2059.9" y2="719.3"/>
	<line class="st20" x1="2113.3" y1="691.8" x2="2090.5" y2="736.8"/>
	<line class="st21" x1="2197.9" y1="745.7" x2="2154.5" y2="799.6"/>
	<line class="st21" x1="2234.8" y1="755.4" x2="2180" y2="822.9"/>
	<line class="st21" x1="2251.2" y1="793.3" x2="2206.3" y2="844.9"/>
	<line class="st21" x1="2265.3" y1="826.5" x2="2238.3" y2="856.8"/>
	<line class="st22" x1="2326.8" y1="988.4" x2="2262.2" y2="988.9"/>
	<line class="st22" x1="2350.4" y1="1021.5" x2="2260.8" y2="1020.9"/>
	<line class="st22" x1="2343.8" y1="1089.4" x2="2274.1" y2="1089.6"/>
	<line class="st22" x1="2359.1" y1="1054" x2="2269.1" y2="1054.1"/>
	<line class="st23" x1="2329.7" y1="1186.3" x2="2283.2" y2="1186.7"/>
	<line class="st24" x1="2190.7" y1="1621.5" x2="2146.3" y2="1578.3"/>
	<line class="st24" x1="2078" y1="1666.8" x2="2077.4" y2="1622.4"/>
	<line class="st24" x1="2037.5" y1="1660.2" x2="2038.7" y2="1604.4"/>
	<line class="st25" x1="1930.3" y1="1635.5" x2="1924.7" y2="1562.9"/>
	<line class="st25" x1="1855.1" y1="1647.2" x2="1855.8" y2="1549.4"/>
	<line class="st25" x1="1791.3" y1="1630.3" x2="1807.3" y2="1526.2"/>
	<line class="st26" x1="1416.7" y1="1654.3" x2="1378.6" y2="1599.8"/>
	<line class="st27" x1="1568.7" y1="1610.3" x2="1585" y2="1549"/>
	<line class="st27" x1="1509" y1="1587.8" x2="1519.4" y2="1528.7"/>
	<line class="st26" x1="1464.2" y1="1602.8" x2="1430.4" y2="1552.7"/>
	<line class="st28" x1="1646" y1="1607.1" x2="1628.5" y2="1551.2"/>
	<line class="st28" x1="1706.7" y1="1584.9" x2="1680.7" y2="1535.3"/>
	<line class="st25" x1="1734.2" y1="1577.4" x2="1760.7" y2="1503.5"/>
	<line class="st23" x1="2316.9" y1="1221.9" x2="2270.4" y2="1222.2"/>
	<line class="st24" x1="2296" y1="1473.4" x2="2269.3" y2="1453"/>
	<line class="st24" x1="2207.2" y1="1577.5" x2="2169.4" y2="1539"/>
	<line class="st26" x1="1385.1" y1="1402" x2="1424.5" y2="1356.5"/>
	<line class="st27" x1="1597" y1="1446.9" x2="1591.9" y2="1387.4"/>
	<line class="st27" x1="1531.8" y1="1455.2" x2="1532.6" y2="1395.3"/>
	<line class="st26" x1="1445.7" y1="1434.1" x2="1480.8" y2="1383.9"/>
	<line class="st28" x1="1646.1" y1="1452.9" x2="1677.1" y2="1395.1"/>
	<line class="st28" x1="1684.2" y1="1484.6" x2="1727.5" y2="1450"/>
	<line class="st29" x1="1334.8" y1="1369.4" x2="1378.7" y2="1308.2"/>
	<line class="st30" x1="1293.2" y1="1353.3" x2="1297.5" y2="1278.9"/>
	<line class="st31" x1="1175.8" y1="1396.4" x2="1154.9" y2="1324.1"/>
	<line class="st31" x1="1243" y1="1366.7" x2="1219.4" y2="1303.4"/>
	<line class="st32" x1="1021.2" y1="1382.7" x2="1029.3" y2="1323"/>
	<line class="st32" x1="1091.1" y1="1398.5" x2="1093.2" y2="1338.4"/>
	<line class="st33" x1="911.9" y1="1391.6" x2="875.9" y2="1343.3"/>
	<line class="st33" x1="953.7" y1="1373.8" x2="958.8" y2="1313.8"/>
	<line class="st34" x1="764.2" y1="1486.9" x2="764.2" y2="1426.8"/>
	<line class="st34" x1="854.2" y1="1437.4" x2="815.4" y2="1391.4"/>
	<line class="st35" x1="620.9" y1="1423.4" x2="630.6" y2="1364"/>
	<line class="st35" x1="668" y1="1446.3" x2="707.4" y2="1400.8"/>
	<line class="st36" x1="487.6" y1="1459.3" x2="492.1" y2="1399.3"/>
	<line class="st36" x1="569" y1="1443" x2="548.6" y2="1386.5"/>
	<line class="st37" x1="336.4" y1="1377.5" x2="378.9" y2="1420.1"/>
	<line class="st37" x1="406" y1="1441.1" x2="428.8" y2="1385.4"/>
	<line class="st38" x1="296" y1="1530" x2="351" y2="1554.3"/>
	<line class="st38" x1="327.7" y1="1458.7" x2="383.8" y2="1480.3"/>
	<line class="st39" x1="253.7" y1="1706.2" x2="313.9" y2="1706.2"/>
	<line class="st39" x1="267.2" y1="1609.8" x2="324.4" y2="1628.5"/>
	<line class="st40" x1="333.1" y1="1866.8" x2="386.6" y2="1839.2"/>
	<line class="st41" x1="290.3" y1="1800.8" x2="342.4" y2="1770.7"/>
	<line class="st42" x1="367.6" y1="2021" x2="427.6" y2="2016"/>
	<line class="st42" x1="361.2" y1="1940.8" x2="420.8" y2="1932"/>
	<line class="st43" x1="439.8" y1="2177.9" x2="469.9" y2="2125.8"/>
	<line class="st44" x1="376.4" y1="2106.7" x2="432.9" y2="2086.1"/>
	<line class="st43" x1="532.5" y1="2194" x2="532.5" y2="2133.8"/>
	<line class="st45" x1="621" y1="2205.7" x2="621" y2="2106.8"/>
	<line class="st46" x1="745.7" y1="2211.2" x2="745.7" y2="2043"/>
	<line class="st47" x1="907.7" y1="2205.7" x2="907.7" y2="1999.1"/>
	<line class="st48" x1="1085.6" y1="2200.4" x2="1085.6" y2="1957"/>
	<line class="st49" x1="1287.4" y1="2190.9" x2="1287.4" y2="1860.4"/>
	<line class="st49" x1="1493.9" y1="2204.1" x2="1493.9" y2="1916"/>
	<line class="st49" x1="1924.6" y1="2204.6" x2="1924.6" y2="1839.3"/>
	<line class="st49" x1="1710.1" y1="2206.5" x2="1710.1" y2="2107.6"/>
</g>
</svg>
