<?xml version="1.0" encoding="utf-8"?>
<!-- Generator: Adobe Illustrator 27.0.0, SVG Export Plug-In . SVG Version: 6.00 Build 0)  -->
<svg version="1.1" id="Layer_1" xmlns="http://www.w3.org/2000/svg" xmlns:xlink="http://www.w3.org/1999/xlink" x="0px" y="0px"
	 viewBox="0 0 2521 2911" style="enable-background:new 0 0 2521 2911;" xml:space="preserve">
<style type="text/css">
	.st0{fill:none;}
	.st1{fill:#8B72A3;}
	.st2{fill:#A48FB0;}
	.st3{fill:#9279A7;}
	.st4{fill:#CCC0C5;}
	.st5{fill:#AF9BB6;}
	.st6{fill:#B3A0B8;}
	.st7{fill:#6B4E93;}
	.st8{fill:#6F5395;}
	.st9{fill:#876DA1;}
	.st10{fill:#AF9CB6;}
	.st11{fill:#957DA8;}
	.st12{fill:#8A70A3;}
	.st13{fill:#D0C5C7;}
	.st14{fill:#D0C4C7;}
	.st15{fill:#CFC4C6;}
	.st16{fill:#C3B5C0;}
	.st17{fill:#CFC4C7;}
	.st18{fill:#CCBFC5;}
	.st19{fill:#9178A6;}
	.st20{fill:#AE9BB5;}
	.st21{fill:#6D5093;}
	.st22{fill:#BAA9BB;}
	.st23{fill:#A994B3;}
	.st24{fill:#B6A4B9;}
	.st25{fill:#BCABBC;}
	.st26{fill:#BFAFBE;}
	.st27{fill:#A28DAF;}
	.st28{fill:#AB97B4;}
	.st29{fill:#947CA8;}
	.st30{fill:#4B2E83;}
	.st31{fill:#8F76A5;}
	.st32{fill:#8E74A4;}
	.st33{fill:#A08AAE;}
	.st34{fill:#9F89AE;}
	.st35{fill:#977FA9;}
	.st36{fill:#8D73A4;}
	.st37{fill:#AC98B4;}
	.st38{fill:#9B84AB;}
	.st39{fill:#E8E3D3;}
	.st40{fill:#BFB0BE;}
	.st41{fill:#A691B1;}
	.st42{fill:#CEC2C6;}
	.st43{fill:#9B84AC;}
	.st44{fill:#B9A8BB;}
	.st45{fill:#B3A1B8;}
	.st46{fill:#6F5295;}
	.st47{fill:#B2A0B7;}
	.st48{fill:#B09DB6;}
	.st49{fill:#8970A2;}
	.st50{fill:#84699F;}
	.st51{fill:#927AA7;}
	.st52{fill:#81679E;}
	.st53{fill:#5F428D;}
	.st54{fill:#A18BAF;}
	.st55{fill:#705395;}
	.st56{fill:#BCACBD;}
	.st57{fill:#856BA0;}
	.st58{fill:#755998;}
	.st59{fill:#896FA2;}
	.st60{fill:#9179A6;}
	.st61{fill:#65478F;}
	.st62{fill:#654890;}
	.st63{fill:#8B71A3;}
	.st64{fill:#866BA0;}
	.st65{fill:#E6B35A;}
	.st66{font-family:'MyriadPro-Regular';}
	.st67{font-size:531px;}
	.st68{fill:#85754D;stroke:#85754D;stroke-miterlimit:10;}
	.st69{fill:#4B2E83;stroke:#4B2E83;stroke-width:9;stroke-miterlimit:10;}
	.st70{fill:#4B2E83;stroke:#4B2E83;stroke-width:4;stroke-miterlimit:10;}
</style>
<g>
	<g>
		<polygon class="st0" points="974.4,306.3 1263.8,306.8 1553.4,307.3 1588,307.3 1588,307.3 1553.4,307.3 1263.8,306.8 
			974.4,306.3 974.4,306.3 934.2,306.3 934.2,306.3 974.4,306.3 		"/>
		<polygon class="st0" points="2419.6,1756.4 2419.6,1756.4 2420.1,1466.8 2420.5,1177.3 2420.6,1135.9 2420.6,1135.7 
			2420.5,1177.3 2420.1,1466.8 2419.6,1756.4 2419.6,1756.4 2419.1,2045.8 2419,2128.1 2419,2128.1 2419.1,2045.8 		"/>
		<polygon class="st1" points="102.9,2042 103.3,1752.6 100.4,1752.6 100.4,2042 102.9,2042 		"/>
		<polygon class="st2" points="103.3,1752.6 103.3,1752.6 103.8,1463 103.8,1463 100.4,1463 100.4,1752.6 103.3,1752.6 		"/>
		<polygon class="st3" points="104.9,785 100.4,787.6 100.4,883.9 104.8,883.9 		"/>
		<polygon class="st4" points="100.4,2042 100.4,2127.1 102.7,2128.5 102.9,2042 		"/>
		<polygon class="st5" points="104.3,1173.5 100.4,1173.5 100.4,1463 103.8,1463 		"/>
		<polygon class="st6" points="104.3,1173.5 104.8,884 104.8,884 104.8,883.9 100.4,883.9 100.4,1173.5 104.3,1173.5 		"/>
		<polygon class="st7" points="392.8,1753.1 89.9,1752.6 89.9,1752.6 89.4,2042 392.3,2042.5 392.8,1753.1 		"/>
		<polygon class="st8" points="392.8,1753.1 393.3,1463.5 90.4,1463 89.9,1752.6 89.9,1752.6 		"/>
		<polygon class="st9" points="91.4,884 91.4,884 91.4,883.9 394.3,884.4 394.8,617.6 259.2,692.4 237.7,704.4 177.7,737.5 
			165.2,744.4 91.5,785 91.4,883.9 		"/>
		<polygon class="st10" points="89.4,2042 89.4,2042 89.2,2128.5 165.2,2170.4 177.7,2177.3 391.9,2295.5 392.3,2042.5 		"/>
		<polygon class="st11" points="393.3,1463.5 393.8,1173.9 90.9,1173.5 90.9,1173.5 90.4,1463 90.4,1463 		"/>
		<polygon class="st12" points="393.8,1173.9 394.3,884.5 394.3,884.5 394.3,884.4 91.4,883.9 91.4,884 90.9,1173.5 		"/>
		
			<rect x="392.7" y="1753.2" transform="matrix(1.642765e-03 -1 1 1.642765e-03 -1361.4559 2432.3396)" class="st13" width="289.4" height="289.6"/>
		<polygon class="st14" points="455.5,2332.2 681.3,2462.6 681.5,2332.5 		"/>
		<polygon class="st15" points="393.4,1463.5 392.9,1753.1 392.9,1753.1 682.5,1753.5 682.5,1753.4 682.5,1753.4 682.9,1464 		"/>
		<polygon class="st16" points="394.3,884.5 394.3,884.5 394.3,884.4 683.9,884.8 684.4,595.4 434,595 394.8,617.6 394.3,884.4 		
			"/>
		<polygon class="st17" points="682,2043 392.4,2042.5 392,2295.5 413.5,2307.9 434.3,2319.9 455.5,2332.2 681.5,2332.5 		"/>
		
			<rect x="393.6" y="1174.2" transform="matrix(1.642832e-03 -1 1 1.642832e-03 -781.4447 1855.1798)" class="st18" width="289.6" height="289.6"/>
		<polygon class="st19" points="684.6,450.3 434,595 684.4,595.4 		"/>
		<polygon class="st11" points="683.4,1174.4 683.9,885 683.9,885 683.9,884.8 394.3,884.4 394.3,884.5 393.8,1173.9 		"/>
		<polygon class="st20" points="971.9,1754 682.5,1753.5 682.5,1753.4 682.5,1753.4 682.5,1753.5 682,2043 971.4,2043.4 		"/>
		<polygon class="st21" points="970.9,2333 681.5,2332.5 681.3,2462.6 712.5,2480.6 724.5,2487.5 958,2622.4 970.5,2622.4 		"/>
		<polygon class="st2" points="971.9,1753.9 971.9,1753.9 972.4,1464.5 682.9,1464 682.5,1753.4 682.5,1753.5 971.9,1754 		"/>
		<polygon class="st22" points="683.9,885 683.9,884.8 973.3,885.3 973.8,595.9 684.4,595.4 683.9,884.8 683.9,885 		"/>
		<polygon class="st23" points="971.4,2043.4 971.4,2043.4 682,2043 681.5,2332.5 970.9,2333 970.9,2333 		"/>
		<polygon class="st24" points="970.5,2622.6 970.5,2622.6 970.5,2622.4 958,2622.4 970.5,2629.6 		"/>
		<polygon class="st25" points="972.4,1464.5 972.4,1464.5 972.8,1174.9 683.4,1174.4 682.9,1464 		"/>
		<line class="st26" x1="684.8" y1="330.9" x2="728.1" y2="305.9"/>
		<polygon class="st26" points="973.8,595.9 973.8,595.9 974.3,306.3 974.4,306.3 974.4,306.3 934.2,306.3 724.5,427.3 712.5,434.2 
			684.6,450.3 684.4,595.4 		"/>
		<polygon class="st27" points="974.4,306.3 974.3,306.3 974.3,283.1 934.2,306.3 974.4,306.3 		"/>
		<polygon class="st28" points="972.8,1174.9 973.3,885.5 973.3,885.5 973.3,885.3 683.9,884.8 683.9,885 683.4,1174.4 
			972.8,1174.9 		"/>
		<polygon class="st29" points="1261.5,1754.5 971.9,1754 971.9,1753.9 971.9,1753.9 971.9,1754 971.4,2043.4 971.4,2043.4 
			1261,2043.9 1261.5,1754.5 		"/>
		<polygon class="st30" points="970.9,2333 970.9,2333 970.5,2622.4 970.5,2622.6 970.5,2622.6 970.5,2622.4 1260,2622.9 
			1260,2622.9 1260.5,2333.5 		"/>
		<polygon class="st31" points="1261.9,1464.9 972.4,1464.5 972.4,1464.5 971.9,1753.9 971.9,1754 1261.5,1754.5 		"/>
		<polygon class="st32" points="973.3,885.5 973.3,885.5 973.3,885.3 1262.9,885.8 1262.9,885.8 1263.4,596.4 973.8,595.9 
			973.8,595.9 973.3,885.3 		"/>
		<path class="st33" d="M971.4,2043.4l-0.5,289.6l289.6,0.5l0.3-165.6c-0.7,0.7-1.3,1.3-2,1.9c0.8-0.8,1.4-1.7,2-2.6l0.2-123.3
			L971.4,2043.4z"/>
		<polygon class="st34" points="1260,2622.9 970.5,2622.4 970.5,2622.6 970.5,2629.6 1254.2,2793.5 1259.7,2796.5 		"/>
		<polygon class="st33" points="1261.9,1464.9 1262.4,1175.4 972.8,1174.9 972.8,1174.9 972.4,1464.5 		"/>
		<polygon class="st35" points="1263.4,596.4 1263.8,306.8 974.4,306.3 974.3,306.3 973.8,595.9 		"/>
		<polygon class="st36" points="974.4,306.3 1263.8,306.8 1264.1,120.3 1260.4,118 1254.1,121.6 974.3,283.1 974.3,306.3 		"/>
		<polygon class="st34" points="972.8,1174.9 1262.4,1175.4 1262.9,885.8 973.3,885.3 973.3,885.5 		"/>
		<polygon class="st37" points="1261.5,1754.5 1261,2043.9 1550.5,2044.4 1551,1755 1551,1755 		"/>
		
			<rect x="1260.3" y="2333.7" transform="matrix(1.643044e-03 -1 1 1.643044e-03 -1075.6937 3879.4131)" class="st28" width="289.4" height="289.6"/>
		<polygon class="st38" points="1261.5,1754.5 1261.5,1754.5 1551,1755 1551.5,1465.4 1261.9,1464.9 		"/>
		
			<rect x="1263.2" y="596.5" transform="matrix(1.642833e-03 -1 1 1.642833e-03 664.2719 2148.0029)" class="st39" width="289.4" height="289.6"/>
		<path class="st40" d="M1261,2043.9l-0.2,123.3c0.1-0.2,0.2-0.4,0.3-0.5h0.9c-0.4,0.4-0.8,0.8-1.2,1.2l-0.3,165.6l289.6,0.5
			l0.5-289.6L1261,2043.9z"/>
		<polygon class="st41" points="1549.6,2623.5 1549.6,2623.4 1260,2622.9 1260,2622.9 1259.7,2796.5 1260.5,2796.9 1266.2,2793.5 
			1549.6,2630 1549.6,2623.5 		"/>
		<polyline class="st41" points="1549.4,2742.7 1455.5,2796.9 1260.5,2909.5 1259.6,2909 1259.6,2912.5 		"/>
		
			<rect x="1262.2" y="1175.6" transform="matrix(1.643255e-03 -1 1 1.643255e-03 84.2601 2725.1619)" class="st25" width="289.6" height="289.6"/>
		
			<rect x="1263.6" y="307" transform="matrix(1.643255e-03 -1 1 1.643255e-03 954.2428 1859.4569)" class="st42" width="289.6" height="289.6"/>
		<polygon class="st43" points="1553.4,307.3 1553.4,287.4 1266.1,121.4 1264.1,120.3 1263.8,306.8 		"/>
		<polygon class="st44" points="1262.4,1175.4 1552,1175.8 1552.4,886.4 1552.4,886.4 1552.4,886.3 1262.9,885.8 1262.9,885.8 		"/>
		<polygon class="st45" points="1551,1755 1550.5,2044.4 1840,2044.9 1840,2044.9 1840.4,1755.4 		"/>
		<polygon class="st46" points="1839.5,2334.4 1550.1,2334 1549.6,2623.4 1549.6,2623.5 1549.6,2623.5 1549.6,2623.4 1561,2623.4 
			1794.6,2488.6 1806.6,2481.7 1839.3,2462.8 1839.5,2334.4 		"/>
		<polygon class="st19" points="1840.9,1465.9 1840.9,1465.9 1551.5,1465.4 1551,1755 1551,1755 1840.4,1755.4 1840.4,1755.4 
			1840.4,1755.4 		"/>
		<polygon class="st47" points="1552.4,886.4 1552.4,886.4 1552.4,886.3 1841.9,886.7 1841.9,886.7 1841.9,886.7 1842.4,597.3 
			1552.9,596.8 1552.4,886.3 		"/>
		
			<rect x="1550.2" y="2044.7" transform="matrix(1.642764e-03 -1 1 1.642764e-03 -497.1761 3880.8394)" class="st48" width="289.6" height="289.4"/>
		<line class="st7" x1="1755.5" y1="2623.7" x2="1549.4" y2="2742.7"/>
		<polygon class="st7" points="1549.6,2623.5 1549.6,2630 1561,2623.4 1549.6,2623.4 		"/>
		
			<rect x="1551.7" y="1176.1" transform="matrix(1.642763e-03 -1 1 1.642763e-03 372.8066 3015.134)" class="st49" width="289.6" height="289.4"/>
		<polygon class="st50" points="1552.9,596.8 1842.4,597.3 1842.4,597.3 1842.6,454.3 1806.4,433.4 1794.4,426.5 1588,307.3 
			1553.4,307.3 		"/>
		<polygon class="st51" points="1588,307.3 1553.4,287.4 1553.4,307.3 		"/>
		<polygon class="st34" points="1841.4,1176.3 1841.4,1176.3 1841.9,886.7 1552.4,886.3 1552.4,886.4 1552,1175.8 		"/>
		<polygon class="st52" points="2130,1755.9 1840.4,1755.4 1840.4,1755.4 1840,2044.9 2129.5,2045.3 2130,1755.9 		"/>
		<polygon class="st53" points="1839.5,2334.4 1839.3,2462.8 2061,2334.8 		"/>
		<polygon class="st54" points="1840.9,1465.9 1840.4,1755.4 1840.4,1755.4 2130,1755.9 2130.5,1466.4 		"/>
		<polygon class="st32" points="1842.4,597.3 1842.4,597.3 1841.9,886.7 2131.4,887.2 2131.4,887.2 2131.9,621.1 2091.3,597.7 		"/>
		<polygon class="st29" points="1840,2044.9 1840,2044.9 1839.5,2334.4 1839.5,2334.4 2061,2334.8 2086.6,2320 2107.4,2308 
			2129.1,2295.5 2129.5,2045.3 		"/>
		<polygon class="st55" points="1841.4,1176.3 1841.4,1176.3 1840.9,1465.9 1840.9,1465.9 2130.5,1466.4 2131,1176.8 		"/>
		<polygon class="st56" points="2091.3,597.7 1842.6,454.3 1842.4,597.3 		"/>
		<polygon class="st57" points="1841.9,886.7 1841.4,1176.3 2131,1176.8 2131.4,887.2 1841.9,886.7 1841.9,886.7 		"/>
		
			<rect x="2129.8" y="1756.1" transform="matrix(1.643044e-03 -1 1 1.643044e-03 369.9543 4172.3042)" class="st6" width="289.4" height="289.6"/>
		<polygon class="st28" points="2130,1755.9 2130,1755.9 2419.6,1756.4 2419.6,1756.4 2420.1,1466.8 2130.5,1466.4 		"/>
		<polyline class="st57" points="2299,598.1 2420.5,668.2 2421.4,668.7 		"/>
		<polygon class="st57" points="2420.6,887.7 2420.6,787.7 2403.4,777.8 2175,646 2131.9,621.1 2131.4,887.2 		"/>
		<polygon class="st6" points="2129.5,2045.3 2129.1,2295.5 2328.2,2180.5 2340.2,2173.6 2419,2128.1 2419.1,2045.8 		"/>
		
			<rect x="2130.7" y="1177" transform="matrix(1.642833e-03 -1 1 1.642833e-03 949.9661 3595.1453)" class="st58" width="289.6" height="289.6"/>
		<polygon class="st11" points="2131.4,887.2 2131,1176.8 2420.5,1177.3 2420.6,1135.7 2420.6,887.7 2131.4,887.2 		"/>
		<line class="st59" x1="2520.9" y1="1756.6" x2="2520.9" y2="2046"/>
		<polygon class="st59" points="2419.1,2045.8 2420.6,2045.8 2420.6,1756.4 2419.6,1756.4 		"/>
		<path class="st60" d="M2418.6,2335.4"/>
		<polygon class="st61" points="2419.6,1756.4 2419.6,1756.4 2420.6,1756.4 2420.6,1466.8 2420.1,1466.8 		"/>
		<line class="st61" x1="2520.9" y1="1467" x2="2520.9" y2="1756.6"/>
		<polygon class="st62" points="2420.6,2045.8 2419.1,2045.8 2419,2128.1 2420.6,2127.1 		"/>
		<line class="st63" x1="2520.9" y1="1177.4" x2="2520.9" y2="1467"/>
		<polygon class="st63" points="2420.1,1466.8 2420.6,1466.8 2420.6,1177.3 2420.5,1177.3 		"/>
		<polygon class="st64" points="2420.6,1177.3 2420.6,1135.9 2420.5,1177.3 		"/>
		<line class="st64" x1="2520.9" y1="887.9" x2="2520.9" y2="1177.4"/>
		<path class="st65" d="M1260.8,2167.9c0.4-0.4,0.8-0.8,1.2-1.2h-0.9c-0.1,0.2-0.2,0.4-0.3,0.5c-0.6,0.9-1.2,1.7-2,2.6
			C1259.4,2169.2,1260.1,2168.6,1260.8,2167.9z"/>
	</g>
	<path class="st30" d="M2419,2128.1l-78.8,45.6l-12,6.9l-199.1,115l-21.7,12.5l-20.8,12l-25.6,14.8l-221.7,128l-32.7,18.9l-12,6.9
		L1561,2623.4l-11.4,6.6l-283.4,163.5l-5.7,3.4l-0.8-0.4l-5.5-3l-283.7-163.9l-12.4-7.2l-233.5-134.9l-12-6.9l-31.2-18l-225.8-130.4
		l-21.2-12.2l-20.8-12l-21.5-12.4l-204.7-118.2l-12-6.9l-72.6-42l-2.3-1.3V2042v-289.4V1463v-289.6V883.9v-96.3l4.5-2.6l70.4-40.6
		l12-6.9l57.3-33.1l20.6-12l129.6-74.8L434,595l250.6-144.7l27.9-16.1l12-6.9l209.7-121.1l0,0l40.1-23.1l279.8-161.5l6.3-3.6
		l3.7,2.2l2,1.2l287.3,165.9l34.6,20h0l206.4,119.2l12,6.9l36.2,20.9l248.7,143.4l40.6,23.4L2175,646l228.4,131.8l17.2,9.9v100v248
		v0.1v41.4v289.6v289.6v289.4v81.3L2419,2128.1L2419,2128.1z M0,2041.8v140l100.5,58l2,1.2l157.4,90.9l131.9,76.2l289.3,167
		l81.6,47.1l207.6,119.8l95.2,55l194.1,112.1l0.9,0.5l195-112.6l93.9-54.2l206.1-119l83.6-48.3l289.8-167.3l126.4-73l163.4-94.4h0
		l1.6-0.9l100.5-58V2046v-289.4V1467v-289.6V887.9V726.3l-99.5-57.6h0l-0.9-0.5L2299,598.1l-166.9-96.4l-289.3-167l-46.7-27h0
		l-242.4-140l-86.2-49.8L1293,17.3l-32.5-18.8l-32.3,18.7L1053.6,118l-79.1,45.7L728.1,305.9l0,0l-43.3,25L395,498.2l-167,96.4
		l-122.8,70.9l-4.6,2.7L0,726.3v157.4v289.6v289.6"/>
</g>
<text transform="matrix(1 0 0 1 514.3798 1177.429)" class="st30 st66 st67">kimma</text>
<path class="st68" d="M391.6,2120.3c-7.5,0.4-15.2,0.6-23,0.6c-1.8,0-3.6,0-5.4-0.1"/>
<path class="st68" d="M240.4,2102.5c-9.7-3-19.1-6.2-28.3-9.8"/>
<path class="st68" d="M89.2,2018.5"/>
<path class="st68" d="M542.7,2085.2c-9.2,4.1-18.7,7.9-28.3,11.4"/>
<path class="st68" d="M1114.5,2098.7c-9.7-3.3-19.1-6.9-28.3-10.9"/>
<path class="st68" d="M2160,2120.3c-7.5,0.4-15.2,0.6-23,0.6c-1.8,0-3.6,0-5.4-0.1"/>
<path class="st68" d="M2008.9,2102.5c-9.7-3-19.1-6.2-28.3-9.8"/>
<path class="st68" d="M2311.2,2085.2c-9.2,4.1-18.7,7.9-28.3,11.4"/>
<path class="st68" d="M1416.6,2089c-9.2,3.9-18.6,7.4-28.3,10.6"/>
<g>
	<g>
		<path class="st30" d="M398.9,2035.9v-566.7l0.5,0c43.7,2.2,83.5,10.7,121.7,26l0.3,0.1v514.4l-0.3,0.1
			c-37.5,15-78.4,23.7-121.7,25.9L398.9,2035.9z M399.9,1470.3v564.6c43.5-2.3,82.9-10.7,120.5-25.7v-513.1
			C482.7,1481,443.2,1472.5,399.9,1470.3z"/>
	</g>
	<g>
		<path class="st30" d="M222.3,2005.8l-0.7-0.3c-42.5-18.6-82.3-45.8-121.7-83.1l0.7-0.7c39.1,37,78.5,64.1,120.7,82.6v-503.3
			c-42.2,18.6-81.6,45.6-120.7,82.6l-0.7-0.7c39.4-37.3,79.2-64.5,121.7-83.1l0.7-0.3V2005.8z"/>
	</g>
	<g>
		<path class="st30" d="M548.5,1997.7v-490.1l0.7,0.4c42.1,21.2,81.9,51.3,121.7,92.1l0.1,0.1V1905l-0.1,0.1
			c-39.9,40.9-79.7,71.1-121.7,92.2L548.5,1997.7z M549.5,1509.2V1996c41.5-21,81-50.9,120.5-91.5v-304
			C630.6,1560.2,591.2,1530.3,549.5,1509.2z"/>
	</g>
	<g>
		<path class="st30" d="M1087.3,2000.5l-0.7-0.3c-42.1-20.3-81.9-49.4-121.7-89.1l-0.1-0.1v-316.7l0.1-0.1
			c39.6-39.6,79.4-68.7,121.7-89l0.7-0.3V2000.5z M965.8,1910.5c39.4,39.3,78.8,68.3,120.5,88.4v-492.6
			c-41.8,20.2-81.3,49.1-120.5,88.3V1910.5z"/>
	</g>
	<g>
		<path class="st30" d="M1236.9,2036.2l-0.5,0c-43.8-1.6-83.6-9.5-121.7-24l-0.3-0.1v-519l0.3-0.1c38.2-14.5,78.1-22.4,121.7-24
			l0.5,0V2036.2z M1115.3,2011.4c37.8,14.3,77.2,22.1,120.5,23.8V1470c-43.2,1.7-82.6,9.5-120.5,23.8V2011.4z"/>
	</g>
	<g>
		<path class="st30" d="M371.9,2036.5l-0.5,0c-43.2-0.5-84.1-7.3-121.7-20.1l-0.3-0.1v-527.3l0.3-0.1
			c37.5-12.8,78.5-19.6,121.7-20.1l0.5,0V2036.5z M250.4,2015.5c37.8,12.8,77.2,19.4,120.5,19.9v-565.7
			c-42.8,0.5-83.3,7.2-120.5,19.9V2015.5z"/>
	</g>
	<g>
		<path class="st69" d="M376.7,2036.1c7.7,0,15.3-0.3,22.7-0.6v-565.7c-7.5-0.4-15-0.6-22.7-0.6c-1.8,0-3.5,0.1-5.3,0.1v566.7
			C373.2,2036,374.9,2036.1,376.7,2036.1z"/>
		<path class="st69" d="M376.7,2036.6c-1,0-2,0-3-0.1c-0.8,0-1.5,0-2.3-0.1l-0.5,0v-567.7l0.5,0c0.8,0,1.5,0,2.3,0c1,0,2-0.1,3-0.1
			c7,0,14.2,0.2,22.8,0.6l0.5,0v566.6l-0.5,0C390.9,2036.4,383.6,2036.6,376.7,2036.6z M371.9,2035.5c0.6,0,1.2,0,1.8,0
			c1,0,2,0.1,3,0.1c6.8,0,13.9-0.2,22.2-0.6v-564.7c-8.3-0.4-15.4-0.6-22.2-0.6c-1,0-2,0-3,0.1c-0.6,0-1.2,0-1.8,0V2035.5z"/>
	</g>
	<g>
		<path class="st30" d="M371.4,1433.8c1.8,0,3.5-0.1,5.3-0.1c7.7,0,15.3,0.2,22.7,0.6"/>
		<path class="st30" d="M399.4,1434.7c-7.7-0.4-15.4-0.6-22.7-0.6c-1,0-2,0-3,0.1c-0.8,0-1.5,0-2.3,0l0-1c0.8,0,1.5,0,2.3,0
			c1,0,2-0.1,3-0.1c7.4,0,15,0.2,22.8,0.6L399.4,1434.7z"/>
	</g>
	<g>
		<path class="st69" d="M249.9,2015.9v-526.6c-9.6,3.3-19,6.9-28,10.9V2005C230.9,2009,240.3,2012.6,249.9,2015.9z"/>
		<path class="st69" d="M250.4,2016.6l-0.7-0.2c-9.6-3.3-19.1-7-28.1-10.9l-0.3-0.1v-505.5l0.3-0.1c9.2-4,18.6-7.7,28.1-10.9
			l0.7-0.2V2016.6z M222.3,2004.7c8.7,3.8,17.8,7.3,27,10.5V1490c-9.1,3.1-18.2,6.7-27,10.5V2004.7z"/>
	</g>
	<g>
		<path class="st30" d="M221.8,1462c9.1-3.6,18.5-6.9,28-9.8"/>
		<path class="st30" d="M222,1462.4l-0.4-0.9c8.8-3.5,18.3-6.8,28.1-9.8l0.3,1C240.2,1455.6,230.8,1458.9,222,1462.4z"/>
	</g>
	<g>
		<path class="st70" d="M100.3,1536.2"/>
	</g>
	<g>
		<path class="st30" d="M670.6,1551.5c9.6,8.8,18.9,18,28,27.4"/>
		<path class="st30" d="M698.3,1579.3c-9.3-9.6-18.7-18.8-28-27.4l0.7-0.7c9.3,8.6,18.8,17.8,28.1,27.4L698.3,1579.3z"/>
	</g>
	<g>
		<path class="st30" d="M698.6,1926.2c-9.1,9.4-18.5,18.6-28,27.4"/>
		<path class="st30" d="M670.9,1954l-0.7-0.7c9.4-8.7,18.8-17.9,28-27.4l0.7,0.7C689.8,1936.1,680.3,1945.3,670.9,1954z"/>
	</g>
	<g>
		<path class="st69" d="M670.6,1904.8c9.6-9.8,18.9-19.9,28-30.4v-243.5c-9.2-10.5-18.5-20.6-28-30.4V1904.8z"/>
		<path class="st69" d="M670.1,1906v-306.8l0.9,0.9c9.2,9.4,18.6,19.7,28.1,30.5l0.1,0.1v243.9l-0.1,0.1
			c-9.2,10.5-18.7,20.8-28.1,30.4L670.1,1906z M671.1,1601.6v301.9c9.1-9.3,18.2-19.2,27-29.4V1631
			C689,1620.6,679.9,1610.7,671.1,1601.6z"/>
	</g>
	<g>
		<path class="st30" d="M521,1457.9c9.6,3.5,18.9,7.3,28,11.4"/>
		<path class="st30" d="M548.8,1469.8c-9.2-4.2-18.7-8-28-11.4l0.3-0.9c9.4,3.4,18.8,7.2,28.1,11.4L548.8,1469.8z"/>
	</g>
	<g>
		<path class="st69" d="M549,1996.8v-488.4c-9.1-4.6-18.4-8.8-28-12.6v513.7C530.6,2005.7,539.9,2001.4,549,1996.8z"/>
		<path class="st69" d="M520.5,2010.2V1495l0.7,0.3c9.5,3.8,18.9,8.1,28.1,12.7l0.3,0.1v489l-0.3,0.1c-9.3,4.7-18.7,8.9-28.1,12.7
			L520.5,2010.2z M521.5,1496.5v512.3c9-3.6,18.1-7.7,27-12.2v-487.8C539.7,1504.3,530.6,1500.2,521.5,1496.5z"/>
	</g>
	<g>
		<path class="st30" d="M1086.8,1466.8c9.1-3.9,18.5-7.6,28-10.9"/>
		<path class="st30" d="M1087,1467.2l-0.4-0.9c9.6-4.2,18.8-7.7,28.1-10.9l0.3,0.9C1105.7,1459.5,1096.6,1463.1,1087,1467.2z"/>
	</g>
	<g>
		<path class="st69" d="M1114.8,2011.8v-518.3c-9.6,3.7-19,7.7-28,12v494.2C1095.9,2004.1,1105.2,2008.1,1114.8,2011.8z"/>
		<path class="st69" d="M1115.3,2012.5l-0.7-0.3c-9.7-3.7-19.1-7.7-28.1-12l-0.3-0.1v-494.9l0.3-0.1c9.1-4.4,18.6-8.5,28.1-12.1
			l0.7-0.3V2012.5z M1087.3,1999.4c8.7,4.2,17.8,8.1,27,11.6v-516.9c-9.2,3.5-18.2,7.4-27,11.6V1999.4z"/>
	</g>
	<g>
		<path class="st69" d="M965.3,1910.7v-316.3c-9.6,9.6-18.9,19.5-28,29.8V1881C946.3,1891.2,955.7,1901.2,965.3,1910.7z"/>
		<path class="st69" d="M965.8,1911.9l-0.9-0.9c-9.3-9.3-18.8-19.3-28.1-29.7l-0.1-0.1V1624l0.1-0.1c9.5-10.6,18.9-20.6,28.1-29.8
			l0.9-0.9V1911.9z M937.7,1880.8c9,10,18.1,19.7,27,28.7v-313.9c-8.8,8.9-17.9,18.5-27,28.7V1880.8z"/>
	</g>
	<g>
		<path class="st30" d="M937.2,1573c9.1-9.2,18.4-18.2,28-26.8"/>
		<path class="st30" d="M937.6,1573.3l-0.7-0.7c9.4-9.5,18.9-18.5,28.1-26.8l0.7,0.7C956.4,1554.8,947,1563.8,937.6,1573.3z"/>
	</g>
	<g>
		<path class="st30" d="M965.3,1959c-9.6-8.6-18.9-17.5-28-26.7"/>
		<path class="st30" d="M964.9,1959.4c-9.4-8.4-18.8-17.4-28.1-26.7l0.7-0.7c9.2,9.4,18.7,18.3,28,26.7L964.9,1959.4z"/>
	</g>
	<g>
		<path class="st69" d="M100.3,1969.1c36.1,30.5,76,56.2,121.5,74.2c9.1,3.6,18.5,6.9,28,9.8c36.7,11.3,76.9,17.9,121.5,18.3
			c1.8,0,3.5,0.1,5.3,0.1c7.7,0,15.3-0.2,22.7-0.6c44.8-2.1,85-10.5,121.5-23.7c9.6-3.5,18.9-7.3,28-11.4
			c45.6-20.6,85.5-49,121.5-82.2c9.6-8.8,18.9-18,28-27.4c35.6-36.9,67.8-78,98.9-119.9c-3.2-4.4-6.4-8.8-9.6-13.1
			c-3.2-4.4-6.4-8.8-9.6-13.3c-0.8-1.1-1.6-2.3-2.5-3.4c-25.1,34.1-50.4,67.3-77.1,97.9c-9.2,10.5-18.5,20.6-28,30.4
			c-36.3,37.2-75.8,69.1-121.5,92.1c-9.1,4.6-18.4,8.8-28,12.7c-36.2,14.5-76.4,23.6-121.5,25.9c-7.5,0.4-15,0.6-22.7,0.6
			c-1.8,0-3.5-0.1-5.3-0.1c-45.1-0.5-85.2-7.7-121.5-20.1c-9.6-3.3-19-6.9-28-10.9c-45.8-20.1-85.4-48.8-121.5-83"/>
		<path class="st69" d="M376.7,2072c-1.2,0-2.4,0-3.6,0l-1.7,0c-42.8-0.5-83.8-6.6-121.7-18.4c-9.5-2.9-19-6.3-28.1-9.9
			c-42.8-16.9-82.6-41.2-121.7-74.3l0.6-0.8c39,33,78.7,57.2,121.4,74.1c9.1,3.6,18.5,6.9,28,9.8c37.8,11.7,78.7,17.9,121.4,18.3
			l1.7,0c8.1,0.1,16.3-0.1,26.3-0.6c42.7-2,83.5-10,121.4-23.7c9.6-3.5,19-7.3,28-11.4c42.5-19.2,82.2-46,121.4-82.1
			c9.4-8.7,18.8-17.9,28-27.4c37.7-39.1,71-82.4,98.6-119.6c-3.2-4.3-6.3-8.6-9.4-12.8l-9.6-13.3c-0.4-0.6-0.8-1.1-1.2-1.7
			c-0.3-0.4-0.6-0.8-0.8-1.2c-22.2,30.1-48.6,65.1-76.7,97.3c-9.2,10.5-18.7,20.8-28.1,30.4c-39.9,40.9-79.7,71.1-121.7,92.2
			c-9.3,4.7-18.7,8.9-28.1,12.7c-37.5,15-78.4,23.7-121.7,25.9c-8.6,0.4-15.8,0.6-22.8,0.6c-1,0-2,0-3-0.1c-0.8,0-1.5,0-2.3-0.1
			c-43.2-0.5-84.1-7.3-121.7-20.1c-9.6-3.3-19.1-7-28.1-10.9c-42.5-18.6-82.3-45.8-121.7-83.1l0.7-0.7c39.3,37.2,79,64.4,121.4,82.9
			c9,3.9,18.4,7.6,28,10.9c38,13,77.7,19.5,121.4,20c0.8,0,1.5,0,2.3,0.1c1,0,2,0.1,3,0.1c6.9,0,14.1-0.2,22.7-0.6
			c43.8-2.2,83.5-10.7,121.4-25.9c9.3-3.7,18.8-8,28-12.6c41.9-21.1,81.6-51.1,121.4-92c9.4-9.6,18.8-19.9,28-30.4
			c28.3-32.4,54.9-67.6,77.1-97.8l0.4-0.5l0.4,0.5c0.4,0.6,0.8,1.1,1.3,1.7c0.4,0.6,0.8,1.1,1.2,1.7l9.6,13.3
			c3.2,4.4,6.4,8.7,9.6,13.1l0.2,0.3l-0.2,0.3c-27.7,37.3-61,80.7-98.9,120c-9.2,9.5-18.6,18.8-28.1,27.4
			c-39.3,36.1-79.1,63.1-121.7,82.3c-9,4.1-18.5,7.9-28.1,11.4c-38,13.7-78.9,21.7-121.7,23.7C390.9,2071.8,383.7,2072,376.7,2072z"
			/>
	</g>
	<g>
		<path class="st69" d="M937.2,1573c-38,38.4-72,81.7-104.8,125.9c6.5,8.8,12.9,17.6,19.2,26.4c0.8,1.1,1.7,2.3,2.5,3.4
			c27-36.7,54.1-72.1,83-104.5c9.2-10.2,18.5-20.2,28-29.8c36.2-36.2,75.8-66.9,121.5-88.9c9.1-4.4,18.4-8.4,28-12
			c36.3-13.8,76.4-22.3,121.5-24c5.5-0.2,11.2-0.3,16.9-0.3v-35.4c-5.7,0-11.3,0.1-16.9,0.3c-44.7,1.6-84.9,9.2-121.5,21.8
			c-9.6,3.3-18.9,7-28,10.9c-45.6,19.7-85.5,47.2-121.5,79.5C955.6,1554.8,946.3,1563.7,937.2,1573z"/>
		<path class="st69" d="M854.2,1729.6l-0.4-0.6c-0.8-1.1-1.6-2.3-2.5-3.4l-6.2-8.5c-4.3-5.9-8.7-11.9-13-17.9l-0.2-0.3l0.2-0.3
			c29.3-39.5,64.6-85.3,104.8-126c9.4-9.5,18.9-18.5,28.1-26.8c39.2-35.1,79-61.1,121.7-79.5c9.6-4.2,18.8-7.7,28.1-10.9
			c37.9-13,78.8-20.4,121.7-21.9c6.5-0.2,11.8-0.3,16.9-0.3h0.5v36.4h-0.5c-5.4,0-10.9,0.1-16.8,0.3c-43.5,1.6-83.2,9.5-121.4,24
			c-9.5,3.6-18.9,7.7-28,12c-42.2,20.3-81.9,49.3-121.4,88.8c-9.1,9.1-18.6,19.1-28,29.7c-30.6,34.3-59.1,72.1-83,104.5
			L854.2,1729.6z M833.1,1698.9c4.3,5.9,8.6,11.7,12.8,17.6l6.2,8.5c0.7,0.9,1.4,1.9,2.1,2.9c23.8-32.3,52.2-69.9,82.7-104
			c9.5-10.6,18.9-20.6,28.1-29.8c39.6-39.6,79.4-68.7,121.7-89c9.1-4.4,18.6-8.5,28.1-12.1c38.2-14.5,78.1-22.4,121.7-24
			c5.8-0.2,11.2-0.3,16.4-0.3v-34.4c-4.9,0-10.1,0.1-16.3,0.3c-42.8,1.5-83.6,8.8-121.4,21.8c-9.3,3.2-18.4,6.7-28,10.9
			c-42.5,18.4-82.3,44.4-121.4,79.4c-9.2,8.2-18.6,17.2-28,26.7l-0.4-0.4l0.4,0.4C897.5,1613.9,862.3,1659.5,833.1,1698.9z"/>
	</g>
	<g>
		<path class="st69" d="M100.3,1583.2c36.1-34.2,75.7-63,121.5-83c9.1-4,18.4-7.6,28-10.9c36.3-12.4,76.5-19.5,121.5-20
			c1.8,0,3.5-0.1,5.3-0.1c7.7,0,15.3,0.3,22.7,0.6c45.2,2.3,85.3,11.5,121.5,26c9.6,3.8,19,8.1,28,12.6c45.7,23,85.3,54.8,121.5,92
			c9.6,9.8,18.9,20,28,30.4c32.9,37.7,63.6,79.2,94.6,121.7c2.5,3.5,5.1,7,7.6,10.5c4.7,6.4,9.4,12.9,14.1,19.4
			c38.2,52.4,77.5,104.5,122.2,149.8c9.1,9.2,18.4,18.1,28,26.7c36.1,32.3,75.9,59.7,121.5,79.4c9.1,3.9,18.5,7.6,28,10.9
			c36.6,12.6,76.8,20.3,121.5,21.8c5.6,0.2,11.2,0.3,16.9,0.3v-35.4c-5.7,0-11.3-0.1-16.9-0.4c-45.1-1.7-85.3-10.1-121.5-23.9
			c-9.6-3.7-19-7.7-28-12c-45.8-22-85.3-52.9-121.5-89c-9.6-9.6-18.9-19.5-28-29.7c-35.2-39.4-67.7-83.4-100.5-128.4
			c-2.6-3.5-5.1-7-7.6-10.5c-4.7-6.4-9.4-12.9-14.1-19.4c-36.6-50-74-99.9-116.4-143.8c-9.1-9.4-18.4-18.6-28-27.4
			c-36.1-33.2-75.9-61.6-121.5-82.2c-9.1-4.1-18.5-7.9-28-11.4c-36.6-13.2-76.8-21.6-121.5-23.7c-7.5-0.4-15-0.6-22.7-0.6
			c-1.8,0-3.5,0.1-5.3,0.1c-44.6,0.5-84.9,7-121.5,18.3c-9.6,3-18.9,6.2-28,9.8c-45.6,18-85.5,43.7-121.5,74.2"/>
		<path class="st69" d="M1253.7,2072h-0.5c-5.3,0-10.8-0.1-16.9-0.3c-42.8-1.5-83.8-8.8-121.7-21.9c-9.4-3.2-18.8-6.9-28.1-10.9
			c-42.6-18.4-82.4-44.4-121.7-79.5c-9.4-8.4-18.8-17.4-28.1-26.7c-45.5-46-85.3-99.2-122.3-149.8c-3.3-4.5-6.6-9.1-10-13.7
			l-4.3-5.9c-2.5-3.5-5-6.9-7.5-10.4c-31.1-42.8-61.8-84.3-94.5-121.7c-9.4-10.8-18.9-21-28-30.4c-39.7-40.7-79.4-70.8-121.4-91.9
			c-9.1-4.6-18.5-8.8-28-12.6c-38.1-15.3-77.8-23.7-121.4-26c-8.5-0.4-15.7-0.6-22.7-0.6c-1,0-2,0-3,0.1c-0.8,0-1.5,0-2.3,0
			c-43.1,0.5-83.9,7.2-121.4,20c-9.4,3.2-18.9,6.9-28,10.9c-42.4,18.6-82.1,45.7-121.4,82.9l-0.7-0.7
			c39.4-37.3,79.2-64.5,121.7-83.1c9.2-4,18.6-7.7,28.1-10.9c37.5-12.8,78.5-19.6,121.7-20.1c0.8,0,1.5,0,2.3,0c1,0,2-0.1,3-0.1
			c7,0,14.2,0.2,22.8,0.6c43.7,2.2,83.5,10.7,121.7,26c9.5,3.8,18.9,8.1,28.1,12.7c42.1,21.2,81.9,51.3,121.7,92.1
			c9.2,9.4,18.6,19.7,28.1,30.5c32.8,37.5,63.4,79,94.6,121.8c2.5,3.5,5,6.9,7.5,10.4l4.3,5.9c3.3,4.6,6.6,9.1,10,13.7
			c36.9,50.6,76.8,103.8,122.2,149.7c9.2,9.4,18.7,18.3,28,26.7c39.1,35,78.9,61,121.4,79.4c9.3,4,18.7,7.7,28,10.9
			c37.8,13,78.6,20.3,121.4,21.8c5.9,0.2,11.2,0.3,16.3,0.3v-34.4c-5,0-10.2-0.1-16.4-0.4c-43.8-1.6-83.6-9.5-121.7-24
			c-9.7-3.7-19.1-7.7-28.1-12c-42.1-20.3-81.9-49.4-121.7-89.1c-9.3-9.3-18.8-19.3-28.1-29.7c-34.8-39-67.4-83-100.5-128.4
			c-1.6-2.2-3.2-4.4-4.9-6.7c-0.9-1.3-1.9-2.5-2.8-3.8l-4.2-5.8c-3.3-4.5-6.6-9.1-9.9-13.6c-35.2-48.3-73.3-99.1-116.3-143.7
			c-9.3-9.6-18.7-18.8-28-27.4c-39.2-36.1-79-62.9-121.4-82.1c-9.2-4.2-18.7-8-28-11.4c-37.8-13.7-78.7-21.6-121.4-23.7
			c-7.7-0.4-15.4-0.6-22.7-0.6c-1,0-2,0-3,0.1c-0.8,0-1.5,0-2.3,0c-42.7,0.5-83.6,6.6-121.4,18.3c-9.8,3-19.2,6.3-28,9.8
			c-42.7,16.9-82.4,41.1-121.4,74.1l-0.6-0.8c39.1-33.1,78.9-57.4,121.7-74.3c8.8-3.5,18.3-6.8,28.1-9.8
			c37.9-11.7,78.8-17.9,121.7-18.4c0.8,0,1.5,0,2.3,0c1,0,2-0.1,3-0.1c7.4,0,15,0.2,22.8,0.6c42.8,2,83.8,10,121.7,23.7
			c9.4,3.4,18.8,7.2,28.1,11.4c42.5,19.2,82.3,46.1,121.7,82.3c9.3,8.6,18.8,17.8,28.1,27.4c43.1,44.6,81.1,95.5,116.4,143.8
			c3.3,4.5,6.6,9.1,9.9,13.6l4.2,5.8c0.9,1.3,1.9,2.6,2.8,3.8c1.6,2.2,3.2,4.5,4.9,6.7c33.1,45.4,65.6,89.4,100.4,128.4
			c9.3,10.4,18.7,20.4,28,29.7c39.7,39.6,79.4,68.7,121.4,88.9c9,4.3,18.4,8.3,28,12c38,14.5,77.7,22.3,121.4,23.9
			c6.4,0.2,11.8,0.4,16.8,0.4h0.5V2072z"/>
	</g>
	<g>
		<path class="st30" d="M1244.5,2036c7.7,0,15.3-0.3,22.7-0.6v-565.7c-7.5-0.4-15-0.6-22.7-0.6c-1.8,0-3.5,0.1-5.3,0.1v566.7
			C1241,2036,1242.7,2036,1244.5,2036z"/>
		<path class="st30" d="M1244.5,2036.5c-1,0-2,0-3-0.1c-0.8,0-1.5,0-2.3-0.1l-0.5,0v-567.7l0.5,0c0.8,0,1.5,0,2.2,0
			c1,0,2-0.1,3.1-0.1c7,0,14.2,0.2,22.8,0.6l0.5,0v566.6l-0.5,0C1258.7,2036.3,1251.5,2036.5,1244.5,2036.5z M1239.7,2035.4
			c0.6,0,1.2,0,1.8,0c1,0,2,0.1,3,0.1c6.8,0,13.9-0.2,22.2-0.6v-564.7c-8.3-0.4-15.4-0.6-22.2-0.6c-1,0-2,0-3,0.1
			c-0.6,0-1.2,0-1.8,0V2035.4z"/>
	</g>
	<g>
		<path class="st30" d="M2148.9,2035.9v-566.7l0.5,0c43.7,2.2,83.5,10.7,121.7,26l0.3,0.1v514.4l-0.3,0.1
			c-37.5,15-78.4,23.7-121.7,25.9L2148.9,2035.9z M2149.9,1470.3v564.6c43.5-2.3,82.9-10.7,120.5-25.7v-513.1
			C2232.6,1481,2193.1,1472.5,2149.9,1470.3z"/>
	</g>
	<g>
		<path class="st30" d="M1972.2,2005.7l-0.7-0.3c-42.5-18.6-82.3-45.8-121.7-83.1l-0.2-0.1V1583l0.2-0.1
			c39.4-37.3,79.2-64.5,121.7-83.1l0.7-0.3V2005.7z M1850.7,1921.7c39,36.9,78.4,63.9,120.5,82.5v-503.3
			c-42.1,18.6-81.5,45.5-120.5,82.5V1921.7z"/>
	</g>
	<g>
		<path class="st30" d="M1263.6,2036.3v-567.4l0.5,0c43.3,1.3,84.2,9.1,121.7,22.9l0.3,0.1v521.1l-0.3,0.1
			c-38.1,14.1-78,21.7-121.7,23L1263.6,2036.3z M1264.6,1469.9v565.3c43.3-1.4,82.7-8.9,120.5-22.8v-519.8
			C1348,1479,1307.4,1471.3,1264.6,1469.9z"/>
	</g>
	<g>
		<path class="st30" d="M2298.4,1997.6v-490.1l0.7,0.4c42.1,21.2,81.9,51.3,121.7,92.1l-0.7,0.7c-39.5-40.5-78.9-70.4-120.7-91.5
			V1996c41.6-21,81.1-51,120.7-91.6l0.7,0.7c-39.9,40.9-79.7,71.1-121.7,92.2L2298.4,1997.6z"/>
	</g>
	<g>
		<path class="st30" d="M1413.2,2001.8v-498.5l0.7,0.3c42.3,19.9,82.1,48.5,121.7,87.6l0.1,0.1v322.3l-0.1,0.1
			c-39.6,39-79.4,67.7-121.7,87.6L1413.2,2001.8z M1414.2,1504.9v495.3c41.9-19.8,81.3-48.2,120.5-86.9v-321.5
			C1495.5,1553.1,1456,1524.7,1414.2,1504.9z"/>
	</g>
	<g>
		<path class="st30" d="M2121.8,2036.4l-0.5,0c-43.2-0.5-84.1-7.3-121.7-20.1l-0.3-0.1v-527.3l0.3-0.1
			c37.5-12.8,78.5-19.6,121.7-20.1l0.5,0V2036.4z M2000.3,2015.5c37.8,12.8,77.2,19.4,120.5,19.9v-565.7
			c-42.8,0.5-83.3,7.2-120.5,19.9V2015.5z"/>
	</g>
	<g>
		<path class="st69" d="M2126.6,2036c7.7,0,15.3-0.3,22.7-0.6v-565.7c-7.5-0.4-15-0.6-22.7-0.6c-1.8,0-3.5,0.1-5.3,0.1v566.7
			C2123.1,2036,2124.8,2036,2126.6,2036z"/>
		<path class="st69" d="M2126.6,2036.5c-1,0-2,0-3-0.1c-0.8,0-1.5,0-2.3-0.1l-0.5,0v-567.7l0.5,0c0.8,0,1.5,0,2.3,0c1,0,2-0.1,3-0.1
			c7,0,14.2,0.2,22.8,0.6l0.5,0v566.6l-0.5,0C2140.8,2036.3,2133.5,2036.5,2126.6,2036.5z M2121.8,2035.4c0.6,0,1.2,0,1.8,0
			c1,0,2,0.1,3,0.1c6.8,0,13.9-0.2,22.2-0.6v-564.7c-8.3-0.4-15.4-0.6-22.2-0.6c-1,0-2,0-3,0.1c-0.6,0-1.2,0-1.8,0V2035.4z"/>
	</g>
	<g>
		<path class="st30" d="M2121.3,1433.8c1.8,0,3.5-0.1,5.3-0.1c7.7,0,15.3,0.2,22.7,0.6"/>
		<path class="st30" d="M2149.3,1434.7c-7.7-0.4-15.4-0.6-22.7-0.6c-1,0-2,0-3,0.1c-0.8,0-1.5,0-2.3,0l0-1c0.8,0,1.5,0,2.3,0
			c1,0,2-0.1,3-0.1c7.4,0,15,0.2,22.8,0.6L2149.3,1434.7z"/>
	</g>
	<g>
		<path class="st69" d="M1999.8,2015.9v-526.6c-9.6,3.3-19,6.9-28,10.9V2005C1980.8,2009,1990.2,2012.6,1999.8,2015.9z"/>
		<path class="st69" d="M2000.3,2016.6l-0.7-0.2c-9.6-3.3-19.1-7-28.1-10.9l-0.3-0.1v-505.5l0.3-0.1c9.2-4,18.6-7.7,28.1-10.9
			l0.7-0.2V2016.6z M1972.2,2004.7c8.7,3.8,17.8,7.3,27,10.5V1490c-9.1,3.1-18.2,6.7-27,10.5V2004.7z"/>
	</g>
	<g>
		<path class="st30" d="M1971.7,1461.9c9.1-3.6,18.5-6.9,28-9.8"/>
		<path class="st30" d="M1971.9,1462.4l-0.4-0.9c8.8-3.5,18.3-6.8,28.1-9.8l0.3,1C1990.1,1455.6,1980.7,1458.9,1971.9,1462.4z"/>
	</g>
	<g>
		<path class="st30" d="M1822.1,1561.5c9.1-8.8,18.4-17.3,28-25.4"/>
		<path class="st30" d="M1822.5,1561.9l-0.7-0.7c9.4-9,18.8-17.6,28.1-25.4l0.6,0.8C1841.3,1544.3,1831.9,1552.9,1822.5,1561.9z"/>
	</g>
	<g>
		<path class="st30" d="M1850.2,1969.1c-9.6-8.1-18.9-16.6-28-25.4"/>
		<path class="st30" d="M1849.9,1969.4c-9.4-8-18.9-16.5-28.1-25.4l0.7-0.7c9.2,8.8,18.6,17.4,28,25.3L1849.9,1969.4z"/>
	</g>
	<g>
		<path class="st69" d="M1850.2,1921.9v-338.8c-9.6,9.1-18.9,18.5-28,28.3v282.1C1831.3,1903.4,1840.6,1912.9,1850.2,1921.9z"/>
		<path class="st69" d="M1850.7,1923.1l-0.8-0.8c-9.4-8.9-18.9-18.5-28.1-28.3l-0.1-0.1v-282.5l0.1-0.1c9.4-10,18.8-19.6,28.1-28.3
			l0.8-0.8V1923.1z M1822.6,1893.5c8.9,9.5,17.9,18.7,27,27.3v-336.4c-8.9,8.5-18,17.7-27,27.4V1893.5z"/>
	</g>
	<g>
		<path class="st70" d="M2420.5,1551.5"/>
	</g>
	<g>
		<path class="st70" d="M2420.5,1953.6"/>
	</g>
	<g>
		<path class="st30" d="M2270.9,1457.9c9.6,3.5,18.9,7.3,28,11.4"/>
		<path class="st30" d="M2298.7,1469.8c-9.2-4.2-18.7-8-28-11.4l0.3-0.9c9.4,3.4,18.8,7.2,28.1,11.4L2298.7,1469.8z"/>
	</g>
	<g>
		<path class="st69" d="M2298.9,1996.8v-488.4c-9.1-4.6-18.4-8.8-28-12.6v513.7C2280.5,2005.6,2289.8,2001.4,2298.9,1996.8z"/>
		<path class="st69" d="M2270.4,2010.2V1495l0.7,0.3c9.5,3.8,18.9,8.1,28.1,12.7l0.3,0.1v489l-0.3,0.1c-9.3,4.7-18.7,8.9-28.1,12.7
			L2270.4,2010.2z M2271.4,1496.5v512.3c9-3.6,18.1-7.7,27-12.2v-487.8C2289.6,1504.3,2280.5,1500.2,2271.4,1496.5z"/>
	</g>
	<g>
		<path class="st30" d="M1535.2,1543.7c9.6,8.5,18.9,17.3,28,26.4"/>
		<path class="st30" d="M1562.9,1570.4c-9.3-9.3-18.8-18.2-28-26.4l0.7-0.8c9.3,8.2,18.7,17.1,28.1,26.4L1562.9,1570.4z"/>
	</g>
	<g>
		<path class="st30" d="M1563.3,1935c-9.1,9.1-18.4,18-28,26.4"/>
		<path class="st30" d="M1535.6,1961.9l-0.7-0.8c9.2-8.1,18.4-16.8,28-26.4l0.7,0.7C1554,1945.1,1544.8,1953.7,1535.6,1961.9z"/>
	</g>
	<g>
		<path class="st69" d="M1535.2,1591.6v321.9c9.6-9.4,18.9-19.2,28-29.4V1621C1554.1,1610.9,1544.8,1601.1,1535.2,1591.6z"/>
		<path class="st69" d="M1534.7,1914.7v-324.3l0.9,0.8c9.5,9.4,19,19.3,28.1,29.4l0.1,0.1v263.6l-0.1,0.1
			c-9.3,10.3-18.7,20.1-28.1,29.4L1534.7,1914.7z M1535.7,1592.8v319.5c9-8.9,18.1-18.5,27-28.4v-262.8
			C1554,1611.5,1544.9,1601.9,1535.7,1592.8z"/>
	</g>
	<g>
		<path class="st30" d="M1385.6,1454.9c9.6,3.2,18.9,6.8,28,10.6"/>
		<path class="st30" d="M1413.5,1466c-9.2-3.9-18.6-7.4-28-10.6l0.3-0.9c9.4,3.2,18.9,6.7,28.1,10.6L1413.5,1466z"/>
	</g>
	<g>
		<path class="st69" d="M1413.7,2001v-496.9c-9.1-4.3-18.4-8.2-28-11.8v520.5C1395.2,2009.2,1404.6,2005.3,1413.7,2001z"/>
		<path class="st69" d="M1385.1,2013.5v-521.9l0.7,0.2c9.3,3.4,18.7,7.4,28.1,11.8l0.3,0.1v497.5l-0.3,0.1
			c-9.1,4.3-18.6,8.3-28.1,11.8L1385.1,2013.5z M1386.1,1493v519c9.1-3.4,18.2-7.2,27-11.4v-496.3
			C1404.2,1500.2,1395.1,1496.4,1386.1,1493z"/>
	</g>
	<g>
		<path class="st69" d="M2420.5,1904.8c-36.3,37.2-75.8,69.1-121.5,92.1c-9.1,4.6-18.4,8.8-28,12.7c-36.2,14.5-76.4,23.6-121.5,25.9
			c-7.5,0.4-15,0.6-22.7,0.6c-1.8,0-3.5-0.1-5.3-0.1c-45.1-0.5-85.2-7.7-121.5-20.1c-9.6-3.3-19-6.9-28-10.9
			c-45.8-20.1-85.4-48.8-121.5-83c-9.6-9.1-18.9-18.5-28-28.3c-39.7-42.5-75.7-91.2-112-141.1c-2.6-3.5-5.1-7-7.6-10.5
			c-4.7-6.4-9.4-12.9-14.1-19.4c-39-53.5-79.1-106.7-125.1-152.6c-9.1-9.1-18.4-17.9-28-26.4c-36.1-31.8-75.9-58.9-121.5-78.2
			c-9.1-3.9-18.5-7.4-28-10.6c-36.6-12.3-76.9-19.7-121.5-21c-4.6-0.1-9.3-0.2-14-0.2v35.4c4.7,0,9.4,0.1,14,0.3
			c45.1,1.4,85.2,9.5,121.5,22.9c9.6,3.6,18.9,7.5,28,11.8c45.8,21.5,85.4,51.8,121.5,87.5c9.6,9.4,18.9,19.2,28,29.3
			c36.3,40.2,69.6,85.3,103.3,131.6c2.5,3.5,5.1,7,7.6,10.5c4.7,6.4,9.4,12.9,14.1,19.4c41.5,56.8,84.2,113.4,133.8,161.2
			c9.1,8.8,18.4,17.2,28,25.4c36.1,30.5,76,56.2,121.5,74.2c9.1,3.6,18.5,6.9,28,9.8c36.7,11.3,76.9,17.9,121.5,18.3
			c1.8,0,3.5,0.1,5.3,0.1c7.7,0,15.3-0.2,22.7-0.6c44.8-2.1,85-10.5,121.5-23.7c9.6-3.5,18.9-7.3,28-11.4
			c45.6-20.6,85.5-49,121.5-82.2"/>
		<path class="st69" d="M2126.6,2072c-1.2,0-2.4,0-3.6,0l-1.7,0c-42.8-0.5-83.8-6.6-121.7-18.4c-9.5-2.9-19-6.3-28.1-9.9
			c-42.8-16.9-82.6-41.2-121.7-74.3c-9.4-8-18.9-16.5-28.1-25.4c-50.1-48.3-93.6-106.1-133.9-161.3c-3.2-4.4-6.5-8.9-9.7-13.3
			l-4.6-6.4c-2.5-3.4-5-6.8-7.4-10.2c-35.3-48.5-67.5-91.9-103.3-131.5c-9.1-10.1-18.5-19.9-28-29.3c-39.5-39-79.2-67.6-121.4-87.4
			c-9.3-4.4-18.7-8.3-28-11.8c-37.4-13.8-78.2-21.5-121.4-22.9l-0.4,0c-4.4-0.1-9-0.3-13.6-0.3h-0.5v-36.4h0.5c4.2,0,8.7,0.1,14,0.2
			c42.8,1.2,83.8,8.3,121.7,21c9.4,3.2,18.9,6.7,28.1,10.6c42.7,18.1,82.5,43.6,121.7,78.2c9.3,8.2,18.7,17.1,28.1,26.4
			c46.6,46.6,87.4,101,125.1,152.7c3.3,4.6,6.7,9.1,10,13.7l4.1,5.7c0.9,1.3,1.9,2.6,2.8,3.9c1.6,2.2,3.2,4.4,4.8,6.6
			c38.2,52.4,72.9,99.2,112,141c9.2,9.8,18.6,19.3,28,28.3c39.3,37.2,79,64.4,121.4,82.9c9,3.9,18.4,7.6,28,10.9
			c38,13,77.7,19.5,121.4,20c0.8,0,1.5,0,2.3,0.1c1,0,2,0.1,3,0.1c6.9,0,14.1-0.2,22.7-0.6c43.8-2.2,83.5-10.7,121.4-25.9
			c9.3-3.7,18.8-8,28-12.6c41.9-21.1,81.6-51.1,121.4-92l0.7,0.7c-39.9,40.9-79.7,71.1-121.7,92.2c-9.3,4.7-18.7,8.9-28.1,12.7
			c-37.5,15-78.4,23.7-121.7,25.9c-8.6,0.4-15.8,0.6-22.8,0.6c-1,0-2,0-3-0.1c-0.8,0-1.5,0-2.3-0.1c-43.2-0.5-84.1-7.3-121.7-20.1
			c-9.6-3.3-19.1-7-28.1-10.9c-42.5-18.6-82.3-45.8-121.7-83.1c-9.4-8.9-18.9-18.5-28.1-28.3c-39.1-41.9-73.9-88.7-112.1-141.1
			c-1.6-2.2-3.2-4.4-4.8-6.6c-0.9-1.3-1.9-2.6-2.8-3.9l-4.1-5.7c-3.3-4.6-6.6-9.1-10-13.7c-37.7-51.7-78.5-106-125-152.6
			c-9.3-9.3-18.8-18.2-28-26.4c-39.1-34.5-78.8-60.1-121.4-78.1c-9.2-3.9-18.6-7.4-28-10.6c-37.8-12.7-78.7-19.7-121.4-21
			c-5.1-0.1-9.4-0.2-13.5-0.2v34.4c4.4,0,8.8,0.1,13.1,0.3l0.4,0c43.3,1.3,84.2,9.1,121.7,22.9c9.3,3.4,18.7,7.4,28.1,11.8
			c42.3,19.9,82.1,48.5,121.7,87.6c9.5,9.4,19,19.3,28.1,29.4c35.8,39.7,68,83.1,103.3,131.6c2.5,3.4,4.9,6.8,7.4,10.2l4.6,6.4
			c3.2,4.4,6.5,8.9,9.7,13.3c40.2,55.1,83.7,112.9,133.7,161.1c9.2,8.8,18.6,17.4,28,25.3c39,33,78.7,57.2,121.4,74.1
			c9.1,3.6,18.5,6.9,28,9.8c37.8,11.7,78.7,17.9,121.4,18.3l1.7,0c8.1,0.1,16.3-0.1,26.3-0.6c42.7-2,83.5-10,121.4-23.7
			c9.6-3.5,19-7.3,28-11.4c42.5-19.2,82.2-46,121.4-82.1l0.7,0.7c-39.3,36.1-79.1,63.1-121.7,82.3c-9,4.1-18.5,7.9-28.1,11.4
			c-38,13.7-78.9,21.7-121.7,23.7C2140.9,2071.8,2133.6,2072,2126.6,2072z"/>
	</g>
	<g>
		<path class="st69" d="M1535.2,1913.5c-36.2,35.7-75.8,66-121.5,87.5c-9.1,4.3-18.4,8.2-28,11.8c-36.3,13.5-76.4,21.6-121.5,23
			c-4.6,0.1-9.3,0.3-14,0.3v35.4c4.7,0,9.4-0.1,14-0.3c44.7-1.3,84.9-8.7,121.5-21c9.6-3.2,18.9-6.8,28-10.6
			c45.6-19.3,85.5-46.3,121.5-78.1c9.6-8.5,18.9-17.3,28-26.4c39.1-39.1,74-83.5,107.6-128.8c-6.5-8.8-12.9-17.6-19.2-26.4
			c-0.8-1.1-1.6-2.3-2.5-3.4c-27.8,37.8-55.8,74.4-85.8,107.7C1554.1,1894.3,1544.8,1904.1,1535.2,1913.5z"/>
		<path class="st69" d="M1250.1,2072h-0.5v-36.4h0.5c4.8,0,9.3-0.1,14-0.3c43.6-1.4,83.3-8.9,121.4-23c9.5-3.5,18.9-7.5,28-11.8
			c42.2-19.8,81.9-48.4,121.4-87.4l0.4,0.4l-0.4-0.4c9.4-9.2,18.8-19.1,28-29.3c31.5-34.9,61.1-74,85.8-107.6l0.4-0.5l0.4,0.5
			c0.4,0.6,0.8,1.1,1.2,1.7c0.4,0.6,0.8,1.1,1.2,1.7l4.6,6.3c4.9,6.7,9.7,13.4,14.7,20.1l0.2,0.3l-0.2,0.3
			c-30,40.5-66.3,87.5-107.6,128.8c-9.7,9.7-18.9,18.3-28.1,26.5c-39.1,34.5-78.9,60.1-121.7,78.2c-9.3,3.9-18.8,7.5-28.1,10.6
			c-37.9,12.7-78.8,19.8-121.7,21l-0.5,0C1259.2,2071.8,1254.7,2072,1250.1,2072z M1250.6,2036.5v34.4c4.4,0,8.8-0.1,13-0.3l0.5,0
			c42.8-1.2,83.6-8.3,121.4-20.9c9.3-3.1,18.7-6.7,28-10.6c42.7-18.1,82.4-43.6,121.4-78c9.2-8.1,18.4-16.8,28-26.4
			c41.2-41.2,77.3-88,107.3-128.4c-4.9-6.6-9.7-13.2-14.4-19.8l-4.6-6.3c-0.4-0.6-0.8-1.1-1.2-1.7c-0.3-0.4-0.6-0.8-0.8-1.2
			c-24.7,33.5-54.1,72.4-85.5,107.2c-9.3,10.3-18.7,20.1-28.1,29.4c-39.6,39-79.4,67.7-121.7,87.6c-9.1,4.3-18.6,8.3-28.1,11.8
			c-38.1,14.1-78,21.7-121.7,23C1259.6,2036.4,1255.2,2036.5,1250.6,2036.5z"/>
	</g>
	<g>
		<path class="st69" d="M2420.5,1551.5c-36.1-33.2-75.9-61.6-121.5-82.2c-9.1-4.1-18.5-7.9-28-11.4c-36.6-13.2-76.8-21.6-121.5-23.7
			c-7.5-0.4-15-0.6-22.7-0.6c-1.8,0-3.5,0.1-5.3,0.1c-44.6,0.5-84.9,7-121.5,18.3c-9.6,3-18.9,6.2-28,9.8
			c-45.6,18-85.5,43.7-121.5,74.2c-9.6,8.1-18.9,16.6-28,25.4c-42.7,41.1-80.3,88.7-116.3,137.4c6.5,8.8,12.9,17.6,19.2,26.4
			c0.8,1.1,1.7,2.3,2.5,3.4c30.5-41.5,61.3-81.5,94.6-117.2c9.1-9.8,18.5-19.2,28-28.3c36.1-34.2,75.7-63,121.5-83
			c9.1-4,18.4-7.6,28-10.9c36.3-12.4,76.5-19.5,121.5-20c1.8,0,3.5-0.1,5.3-0.1c7.7,0,15.3,0.3,22.7,0.6
			c45.2,2.3,85.3,11.5,121.5,26c9.6,3.8,19,8.1,28,12.6c45.7,23,85.3,54.8,121.5,92"/>
		<path class="st69" d="M1727.5,1729.6l-0.4-0.6c-0.8-1.1-1.6-2.3-2.5-3.4l-6.1-8.3c-4.4-6-8.8-12-13.2-18.1l-0.2-0.3l0.2-0.3
			c32.4-43.7,71.6-94.3,116.4-137.4c9.4-9,18.8-17.6,28.1-25.4c39.1-33.1,78.9-57.4,121.7-74.3c8.8-3.5,18.3-6.8,28.1-9.8
			c37.9-11.7,78.8-17.9,121.7-18.4c0.8,0,1.5,0,2.3,0c1,0,2-0.1,3-0.1c7.4,0,15,0.2,22.8,0.6c42.8,2,83.8,10,121.7,23.7
			c9.4,3.4,18.8,7.2,28.1,11.4c42.5,19.2,82.3,46.1,121.7,82.3l-0.7,0.7c-39.2-36.1-79-62.9-121.4-82.1c-9.2-4.2-18.7-8-28-11.4
			c-37.8-13.7-78.7-21.6-121.4-23.7c-7.7-0.4-15.4-0.6-22.7-0.6c-1,0-2,0-3,0.1c-0.8,0-1.5,0-2.3,0c-42.7,0.5-83.6,6.6-121.4,18.3
			c-9.8,3-19.2,6.3-28,9.8c-42.7,16.8-82.4,41.1-121.4,74.1c-9.2,7.8-18.7,16.3-28,25.4c-44.6,43-83.7,93.4-116.1,137
			c4.3,5.9,8.6,11.9,12.9,17.8l6.1,8.3c0.7,0.9,1.4,1.9,2.1,2.9c28.5-38.8,59.7-79.7,94.2-116.7c9.4-10,18.8-19.6,28.1-28.3
			c39.4-37.3,79.2-64.5,121.7-83.1c9.2-4,18.6-7.7,28.1-10.9c37.5-12.8,78.5-19.6,121.7-20.1c0.8,0,1.5,0,2.3,0c1,0,2-0.1,3-0.1
			c7,0,14.2,0.2,22.8,0.6c43.7,2.2,83.5,10.7,121.7,26c9.5,3.8,18.9,8.1,28.1,12.7c42.1,21.2,81.9,51.3,121.7,92.1l-0.7,0.7
			c-39.7-40.7-79.4-70.8-121.4-91.9c-9.1-4.6-18.5-8.8-28-12.6c-38.1-15.3-77.8-23.7-121.4-26c-8.5-0.4-15.7-0.6-22.7-0.6
			c-1,0-2,0-3,0.1c-0.8,0-1.5,0-2.3,0c-43.1,0.5-83.9,7.2-121.4,20c-9.4,3.2-18.9,6.9-28,10.9c-42.4,18.6-82.1,45.7-121.4,82.9
			c-9.2,8.8-18.7,18.3-28,28.3c-34.7,37.1-65.9,78.3-94.6,117.2L1727.5,1729.6z"/>
	</g>
	<g>
		<path class="st69" d="M1241.4,2036c7.7,0,15.3-0.3,22.7-0.6v-565.7c-7.5-0.4-15-0.6-22.7-0.6c-1.8,0-3.5,0.1-5.3,0.1v566.7
			C1237.8,2035.9,1239.6,2036,1241.4,2036z"/>
		<path class="st69" d="M1241.4,2036.5c-1,0-2,0-3-0.1c-0.8,0-1.5,0-2.3-0.1l-0.5,0v-567.7l0.5,0c0.8,0,1.5,0,2.3,0c1,0,2-0.1,3-0.1
			c7,0,14.3,0.2,22.8,0.6l0.5,0v566.6l-0.5,0C1255.5,2036.3,1248.3,2036.5,1241.4,2036.5z M1236.6,2035.4c0.6,0,1.2,0,1.8,0
			c1,0,2,0.1,3,0.1c6.8,0,13.9-0.2,22.2-0.6v-564.7c-8.3-0.4-15.4-0.6-22.2-0.6c-1,0-2,0-3,0.1c-0.6,0-1.2,0-1.8,0V2035.4z"/>
	</g>
</g>
</svg>
